<mxfile host="65bd71144e">
    <diagram id="C5RBs43oDa-KdzZeNtuy" name="Page-1">
        <mxGraphModel dx="426" dy="779" grid="1" gridSize="10" guides="0" tooltips="1" connect="1" arrows="1" fold="1" page="1" pageScale="1" pageWidth="2400" pageHeight="1900" background="#000000" math="0" shadow="0">
            <root>
                <mxCell id="WIyWlLk6GJQsqaUBKTNV-0"/>
                <mxCell id="WIyWlLk6GJQsqaUBKTNV-1" parent="WIyWlLk6GJQsqaUBKTNV-0"/>
                <mxCell id="136" value="Model" style="swimlane;whiteSpace=wrap;html=1;strokeColor=#666666;fillColor=#f5f5f5;fontColor=#333333;" parent="WIyWlLk6GJQsqaUBKTNV-1" vertex="1">
                    <mxGeometry x="20" y="40" width="1239" height="1800" as="geometry"/>
                </mxCell>
                <mxCell id="19" value="Parser" style="swimlane;whiteSpace=wrap;html=1;strokeColor=#666666;fillColor=#f5f5f5;fontColor=#333333;" parent="136" vertex="1">
                    <mxGeometry x="39" y="50" width="391" height="470" as="geometry"/>
                </mxCell>
                <mxCell id="zkfFHV4jXpPFQw0GAbJ--0" value="Parser" style="swimlane;fontStyle=0;align=center;verticalAlign=top;childLayout=stackLayout;horizontal=1;startSize=26;horizontalStack=0;resizeParent=1;resizeLast=0;collapsible=1;marginBottom=0;rounded=1;shadow=0;strokeWidth=1;fillColor=#BC6C25;strokeColor=#DDA15E;fontColor=#FEFAE0;" parent="19" vertex="1">
                    <mxGeometry x="41" y="40" width="310" height="326" as="geometry">
                        <mxRectangle x="230" y="140" width="160" height="26" as="alternateBounds"/>
                    </mxGeometry>
                </mxCell>
                <mxCell id="126" value="- network: Network" style="text;strokeColor=none;fillColor=none;align=left;verticalAlign=middle;spacingLeft=4;spacingRight=4;overflow=hidden;points=[[0,0.5],[1,0.5]];portConstraint=eastwest;rotatable=0;fontColor=#FEFAE0;rounded=1;" parent="zkfFHV4jXpPFQw0GAbJ--0" vertex="1">
                    <mxGeometry y="26" width="310" height="30" as="geometry"/>
                </mxCell>
                <mxCell id="445" value="- stations: List&lt;Station&gt;" style="text;strokeColor=none;fillColor=none;align=left;verticalAlign=middle;spacingLeft=4;spacingRight=4;overflow=hidden;points=[[0,0.5],[1,0.5]];portConstraint=eastwest;rotatable=0;fontColor=#FEFAE0;rounded=1;" parent="zkfFHV4jXpPFQw0GAbJ--0" vertex="1">
                    <mxGeometry y="56" width="310" height="30" as="geometry"/>
                </mxCell>
                <mxCell id="447" value="- dataLine: Map&lt;Line, ArrayList&lt;DurationJourney&gt;&gt;" style="text;strokeColor=none;fillColor=none;align=left;verticalAlign=middle;spacingLeft=4;spacingRight=4;overflow=hidden;points=[[0,0.5],[1,0.5]];portConstraint=eastwest;rotatable=0;fontColor=#FEFAE0;rounded=1;" parent="zkfFHV4jXpPFQw0GAbJ--0" vertex="1">
                    <mxGeometry y="86" width="310" height="30" as="geometry"/>
                </mxCell>
                <mxCell id="948" value="" style="endArrow=none;dashed=1;html=1;rounded=1;sketch=0;fontColor=#FEFAE0;strokeColor=#DDA15E;fillColor=#BC6C25;curved=0;labelBackgroundColor=#283618;" parent="zkfFHV4jXpPFQw0GAbJ--0" edge="1">
                    <mxGeometry width="50" height="50" relative="1" as="geometry">
                        <mxPoint y="119.99999999999989" as="sourcePoint"/>
                        <mxPoint x="310" y="119.99999999999989" as="targetPoint"/>
                    </mxGeometry>
                </mxCell>
                <mxCell id="127" value="+ Parser(boolean)" style="text;strokeColor=none;fillColor=none;align=left;verticalAlign=middle;spacingLeft=4;spacingRight=4;overflow=hidden;points=[[0,0.5],[1,0.5]];portConstraint=eastwest;rotatable=0;fontColor=#FEFAE0;rounded=1;" parent="zkfFHV4jXpPFQw0GAbJ--0" vertex="1">
                    <mxGeometry y="116" width="310" height="30" as="geometry"/>
                </mxCell>
                <mxCell id="128" value="- openFile(String)" style="text;strokeColor=none;fillColor=none;align=left;verticalAlign=middle;spacingLeft=4;spacingRight=4;overflow=hidden;points=[[0,0.5],[1,0.5]];portConstraint=eastwest;rotatable=0;fontColor=#FEFAE0;rounded=1;" parent="zkfFHV4jXpPFQw0GAbJ--0" vertex="1">
                    <mxGeometry y="146" width="310" height="30" as="geometry"/>
                </mxCell>
                <mxCell id="448" value="- lineAlreadyExist(String)" style="text;strokeColor=none;fillColor=none;align=left;verticalAlign=middle;spacingLeft=4;spacingRight=4;overflow=hidden;points=[[0,0.5],[1,0.5]];portConstraint=eastwest;rotatable=0;fontColor=#FEFAE0;rounded=1;" parent="zkfFHV4jXpPFQw0GAbJ--0" vertex="1">
                    <mxGeometry y="176" width="310" height="30" as="geometry"/>
                </mxCell>
                <mxCell id="449" value="- createStation(String, String, float, float)" style="text;strokeColor=none;fillColor=none;align=left;verticalAlign=middle;spacingLeft=4;spacingRight=4;overflow=hidden;points=[[0,0.5],[1,0.5]];portConstraint=eastwest;rotatable=0;fontColor=#FEFAE0;rounded=1;" parent="zkfFHV4jXpPFQw0GAbJ--0" vertex="1">
                    <mxGeometry y="206" width="310" height="30" as="geometry"/>
                </mxCell>
                <mxCell id="450" value="+ parseStations(File)" style="text;strokeColor=none;fillColor=none;align=left;verticalAlign=middle;spacingLeft=4;spacingRight=4;overflow=hidden;points=[[0,0.5],[1,0.5]];portConstraint=eastwest;rotatable=0;fontColor=#FEFAE0;rounded=1;" parent="zkfFHV4jXpPFQw0GAbJ--0" vertex="1">
                    <mxGeometry y="236" width="310" height="30" as="geometry"/>
                </mxCell>
                <mxCell id="130" value="+ parseLines(File)" style="text;strokeColor=none;fillColor=none;align=left;verticalAlign=middle;spacingLeft=4;spacingRight=4;overflow=hidden;points=[[0,0.5],[1,0.5]];portConstraint=eastwest;rotatable=0;fontColor=#FEFAE0;rounded=1;" parent="zkfFHV4jXpPFQw0GAbJ--0" vertex="1">
                    <mxGeometry y="266" width="310" height="30" as="geometry"/>
                </mxCell>
                <mxCell id="451" value="- fillStationsSchedulesFromTerminusLineStart()" style="text;strokeColor=none;fillColor=none;align=left;verticalAlign=middle;spacingLeft=4;spacingRight=4;overflow=hidden;points=[[0,0.5],[1,0.5]];portConstraint=eastwest;rotatable=0;fontColor=#FEFAE0;rounded=1;" parent="zkfFHV4jXpPFQw0GAbJ--0" vertex="1">
                    <mxGeometry y="296" width="310" height="30" as="geometry"/>
                </mxCell>
                <mxCell id="23" value="Transport" style="swimlane;whiteSpace=wrap;html=1;strokeColor=#666666;fillColor=#f5f5f5;fontColor=#333333;" parent="136" vertex="1">
                    <mxGeometry x="39" y="560" width="1121" height="1210" as="geometry"/>
                </mxCell>
                <mxCell id="tlL8x4SYafilrO8FaroJ-0" value="Station" style="swimlane;fontStyle=0;childLayout=stackLayout;horizontal=1;startSize=30;horizontalStack=0;resizeParent=1;resizeParentMax=0;resizeLast=0;collapsible=1;marginBottom=0;fillColor=#BC6C25;strokeColor=#DDA15E;fontColor=#FEFAE0;rounded=1;" parent="23" vertex="1">
                    <mxGeometry x="71" y="760" width="320" height="270" as="geometry">
                        <mxRectangle x="29" y="175" width="80" height="30" as="alternateBounds"/>
                    </mxGeometry>
                </mxCell>
                <mxCell id="463" value="- allLines: ArrayList&lt;String&gt;" style="text;strokeColor=none;fillColor=none;align=left;verticalAlign=middle;spacingLeft=4;spacingRight=4;overflow=hidden;points=[[0,0.5],[1,0.5]];portConstraint=eastwest;rotatable=0;fontColor=#FEFAE0;rounded=1;" parent="tlL8x4SYafilrO8FaroJ-0" vertex="1">
                    <mxGeometry y="30" width="320" height="30" as="geometry"/>
                </mxCell>
                <mxCell id="464" value="- schedules: Map&lt;String, ArrayList&lt;Time&gt;&gt;" style="text;strokeColor=none;fillColor=none;align=left;verticalAlign=middle;spacingLeft=4;spacingRight=4;overflow=hidden;points=[[0,0.5],[1,0.5]];portConstraint=eastwest;rotatable=0;fontColor=#FEFAE0;rounded=1;" parent="tlL8x4SYafilrO8FaroJ-0" vertex="1">
                    <mxGeometry y="60" width="320" height="30" as="geometry"/>
                </mxCell>
                <mxCell id="932" value="- simpleLineName: String" style="text;strokeColor=none;fillColor=none;align=left;verticalAlign=middle;spacingLeft=4;spacingRight=4;overflow=hidden;points=[[0,0.5],[1,0.5]];portConstraint=eastwest;rotatable=0;fontColor=#FEFAE0;rounded=1;" parent="tlL8x4SYafilrO8FaroJ-0" vertex="1">
                    <mxGeometry y="90" width="320" height="30" as="geometry"/>
                </mxCell>
                <mxCell id="933" value="- multiLine: boolean" style="text;strokeColor=none;fillColor=none;align=left;verticalAlign=middle;spacingLeft=4;spacingRight=4;overflow=hidden;points=[[0,0.5],[1,0.5]];portConstraint=eastwest;rotatable=0;fontColor=#FEFAE0;rounded=1;" parent="tlL8x4SYafilrO8FaroJ-0" vertex="1">
                    <mxGeometry y="120" width="320" height="30" as="geometry"/>
                </mxCell>
                <mxCell id="934" value="" style="endArrow=none;dashed=1;html=1;rounded=1;sketch=0;fontColor=#FEFAE0;strokeColor=#DDA15E;fillColor=#BC6C25;curved=0;exitX=0.004;exitY=-0.033;exitDx=0;exitDy=0;exitPerimeter=0;labelBackgroundColor=#283618;" parent="tlL8x4SYafilrO8FaroJ-0" edge="1">
                    <mxGeometry width="50" height="50" relative="1" as="geometry">
                        <mxPoint y="150" as="sourcePoint"/>
                        <mxPoint x="320" y="150" as="targetPoint"/>
                        <Array as="points"/>
                    </mxGeometry>
                </mxCell>
                <mxCell id="465" value="+ Station(String, String, Float, Float)" style="text;strokeColor=none;fillColor=none;align=left;verticalAlign=middle;spacingLeft=4;spacingRight=4;overflow=hidden;points=[[0,0.5],[1,0.5]];portConstraint=eastwest;rotatable=0;fontColor=#FEFAE0;rounded=1;" parent="tlL8x4SYafilrO8FaroJ-0" vertex="1">
                    <mxGeometry y="150" width="320" height="30" as="geometry"/>
                </mxCell>
                <mxCell id="468" value="+ addSchedule(Line, Time)" style="text;strokeColor=none;fillColor=none;align=left;verticalAlign=middle;spacingLeft=4;spacingRight=4;overflow=hidden;points=[[0,0.5],[1,0.5]];portConstraint=eastwest;rotatable=0;fontColor=#FEFAE0;rounded=1;" parent="tlL8x4SYafilrO8FaroJ-0" vertex="1">
                    <mxGeometry y="180" width="320" height="30" as="geometry"/>
                </mxCell>
                <mxCell id="469" value="+ addLine(String)" style="text;strokeColor=none;fillColor=none;align=left;verticalAlign=middle;spacingLeft=4;spacingRight=4;overflow=hidden;points=[[0,0.5],[1,0.5]];portConstraint=eastwest;rotatable=0;fontColor=#FEFAE0;rounded=1;" parent="tlL8x4SYafilrO8FaroJ-0" vertex="1">
                    <mxGeometry y="210" width="320" height="30" as="geometry"/>
                </mxCell>
                <mxCell id="470" value="+ getLinesNumbers()" style="text;strokeColor=none;fillColor=none;align=left;verticalAlign=middle;spacingLeft=4;spacingRight=4;overflow=hidden;points=[[0,0.5],[1,0.5]];portConstraint=eastwest;rotatable=0;fontColor=#FEFAE0;rounded=1;" parent="tlL8x4SYafilrO8FaroJ-0" vertex="1">
                    <mxGeometry y="240" width="320" height="30" as="geometry"/>
                </mxCell>
                <mxCell id="tlL8x4SYafilrO8FaroJ-4" value="EdgeTransport" style="swimlane;fontStyle=0;childLayout=stackLayout;horizontal=1;startSize=30;horizontalStack=0;resizeParent=1;resizeParentMax=0;resizeLast=0;collapsible=1;marginBottom=0;fillColor=#BC6C25;strokeColor=#DDA15E;fontColor=#FEFAE0;rounded=1;" parent="23" vertex="1">
                    <mxGeometry x="601" y="840" width="449" height="330" as="geometry"/>
                </mxCell>
                <mxCell id="tlL8x4SYafilrO8FaroJ-5" value="- durationJourney: DurationJourney" style="text;strokeColor=none;fillColor=none;align=left;verticalAlign=middle;spacingLeft=4;spacingRight=4;overflow=hidden;points=[[0,0.5],[1,0.5]];portConstraint=eastwest;rotatable=0;fontColor=#FEFAE0;rounded=1;" parent="tlL8x4SYafilrO8FaroJ-4" vertex="1">
                    <mxGeometry y="30" width="449" height="30" as="geometry"/>
                </mxCell>
                <mxCell id="tlL8x4SYafilrO8FaroJ-7" value="- distance : float" style="text;strokeColor=none;fillColor=none;align=left;verticalAlign=middle;spacingLeft=4;spacingRight=4;overflow=hidden;points=[[0,0.5],[1,0.5]];portConstraint=eastwest;rotatable=0;fontColor=#FEFAE0;rounded=1;" parent="tlL8x4SYafilrO8FaroJ-4" vertex="1">
                    <mxGeometry y="60" width="449" height="30" as="geometry"/>
                </mxCell>
                <mxCell id="52" value="- startingStation: Station" style="text;strokeColor=none;fillColor=none;align=left;verticalAlign=middle;spacingLeft=4;spacingRight=4;overflow=hidden;points=[[0,0.5],[1,0.5]];portConstraint=eastwest;rotatable=0;fontColor=#FEFAE0;rounded=1;" parent="tlL8x4SYafilrO8FaroJ-4" vertex="1">
                    <mxGeometry y="90" width="449" height="30" as="geometry"/>
                </mxCell>
                <mxCell id="471" value="- endingStation: Station" style="text;strokeColor=none;fillColor=none;align=left;verticalAlign=middle;spacingLeft=4;spacingRight=4;overflow=hidden;points=[[0,0.5],[1,0.5]];portConstraint=eastwest;rotatable=0;fontColor=#FEFAE0;rounded=1;" parent="tlL8x4SYafilrO8FaroJ-4" vertex="1">
                    <mxGeometry y="120" width="449" height="30" as="geometry"/>
                </mxCell>
                <mxCell id="472" value="- lineName: String" style="text;strokeColor=none;fillColor=none;align=left;verticalAlign=middle;spacingLeft=4;spacingRight=4;overflow=hidden;points=[[0,0.5],[1,0.5]];portConstraint=eastwest;rotatable=0;fontColor=#FEFAE0;rounded=1;" parent="tlL8x4SYafilrO8FaroJ-4" vertex="1">
                    <mxGeometry y="150" width="449" height="30" as="geometry"/>
                </mxCell>
                <mxCell id="tlL8x4SYafilrO8FaroJ-41" value="" style="endArrow=none;dashed=1;html=1;rounded=1;sketch=0;fontColor=#FEFAE0;strokeColor=#DDA15E;fillColor=#BC6C25;curved=0;labelBackgroundColor=#283618;entryX=0.998;entryY=0.004;entryDx=0;entryDy=0;entryPerimeter=0;" parent="tlL8x4SYafilrO8FaroJ-4" target="473" edge="1">
                    <mxGeometry width="50" height="50" relative="1" as="geometry">
                        <mxPoint y="180" as="sourcePoint"/>
                        <mxPoint x="353.33333333333326" y="180" as="targetPoint"/>
                    </mxGeometry>
                </mxCell>
                <mxCell id="473" value="+ EdgeTransport(VertexTransport, VertexTransport, DurationJourney, float, String)" style="text;strokeColor=none;fillColor=none;align=left;verticalAlign=middle;spacingLeft=4;spacingRight=4;overflow=hidden;points=[[0,0.5],[1,0.5]];portConstraint=eastwest;rotatable=0;fontColor=#FEFAE0;rounded=1;" parent="tlL8x4SYafilrO8FaroJ-4" vertex="1">
                    <mxGeometry y="180" width="449" height="30" as="geometry"/>
                </mxCell>
                <mxCell id="474" value="+ toString()" style="text;strokeColor=none;fillColor=none;align=left;verticalAlign=middle;spacingLeft=4;spacingRight=4;overflow=hidden;points=[[0,0.5],[1,0.5]];portConstraint=eastwest;rotatable=0;fontColor=#FEFAE0;rounded=1;" parent="tlL8x4SYafilrO8FaroJ-4" vertex="1">
                    <mxGeometry y="210" width="449" height="30" as="geometry"/>
                </mxCell>
                <mxCell id="850" value="+ copy()" style="text;strokeColor=none;fillColor=none;align=left;verticalAlign=middle;spacingLeft=4;spacingRight=4;overflow=hidden;points=[[0,0.5],[1,0.5]];portConstraint=eastwest;rotatable=0;fontColor=#FEFAE0;rounded=1;" parent="tlL8x4SYafilrO8FaroJ-4" vertex="1">
                    <mxGeometry y="240" width="449" height="30" as="geometry"/>
                </mxCell>
                <mxCell id="475" value="+ estimateWeight()" style="text;strokeColor=none;fillColor=none;align=left;verticalAlign=middle;spacingLeft=4;spacingRight=4;overflow=hidden;points=[[0,0.5],[1,0.5]];portConstraint=eastwest;rotatable=0;fontColor=#FEFAE0;rounded=1;" parent="tlL8x4SYafilrO8FaroJ-4" vertex="1">
                    <mxGeometry y="270" width="449" height="30" as="geometry"/>
                </mxCell>
                <mxCell id="476" value="+ swapStations()" style="text;strokeColor=none;fillColor=none;align=left;verticalAlign=middle;spacingLeft=4;spacingRight=4;overflow=hidden;points=[[0,0.5],[1,0.5]];portConstraint=eastwest;rotatable=0;fontColor=#FEFAE0;rounded=1;" parent="tlL8x4SYafilrO8FaroJ-4" vertex="1">
                    <mxGeometry y="300" width="449" height="30" as="geometry"/>
                </mxCell>
                <mxCell id="tlL8x4SYafilrO8FaroJ-61" value="Network" style="swimlane;fontStyle=0;childLayout=stackLayout;horizontal=1;startSize=30;horizontalStack=0;resizeParent=1;resizeParentMax=0;resizeLast=0;collapsible=1;marginBottom=0;rounded=1;sketch=0;fontColor=#FEFAE0;strokeColor=#DDA15E;fillColor=#BC6C25;" parent="23" vertex="1">
                    <mxGeometry x="621" y="40" width="469" height="660" as="geometry"/>
                </mxCell>
                <mxCell id="tlL8x4SYafilrO8FaroJ-62" value="- static graph: Graph&lt;Station, EdgeTransport&gt;" style="text;strokeColor=none;fillColor=none;align=left;verticalAlign=middle;spacingLeft=4;spacingRight=4;overflow=hidden;points=[[0,0.5],[1,0.5]];portConstraint=eastwest;rotatable=0;rounded=1;sketch=0;fontColor=#FEFAE0;" parent="tlL8x4SYafilrO8FaroJ-61" vertex="1">
                    <mxGeometry y="30" width="469" height="30" as="geometry"/>
                </mxCell>
                <mxCell id="tlL8x4SYafilrO8FaroJ-63" value="- stations: HashMap&lt;String, Station&gt;" style="text;strokeColor=none;fillColor=none;align=left;verticalAlign=middle;spacingLeft=4;spacingRight=4;overflow=hidden;points=[[0,0.5],[1,0.5]];portConstraint=eastwest;rotatable=0;rounded=1;sketch=0;fontColor=#FEFAE0;" parent="tlL8x4SYafilrO8FaroJ-61" vertex="1">
                    <mxGeometry y="60" width="469" height="30" as="geometry"/>
                </mxCell>
                <mxCell id="819" value="- userPoint: List&lt;Point&gt;" style="text;strokeColor=none;fillColor=none;align=left;verticalAlign=middle;spacingLeft=4;spacingRight=4;overflow=hidden;points=[[0,0.5],[1,0.5]];portConstraint=eastwest;rotatable=0;rounded=1;sketch=0;fontColor=#FEFAE0;" parent="tlL8x4SYafilrO8FaroJ-61" vertex="1">
                    <mxGeometry y="90" width="469" height="30" as="geometry"/>
                </mxCell>
                <mxCell id="453" value="- distancePaths: DijkstraShortestPath&lt;Station, EdgeTransport&gt;" style="text;strokeColor=none;fillColor=none;align=left;verticalAlign=middle;spacingLeft=4;spacingRight=4;overflow=hidden;points=[[0,0.5],[1,0.5]];portConstraint=eastwest;rotatable=0;rounded=1;sketch=0;fontColor=#FEFAE0;" parent="tlL8x4SYafilrO8FaroJ-61" vertex="1">
                    <mxGeometry y="120" width="469" height="30" as="geometry"/>
                </mxCell>
                <mxCell id="454" value="- dataLine: Map&lt;Line, ArrayList&lt;DurationJourney&gt;&gt;" style="text;strokeColor=none;fillColor=none;align=left;verticalAlign=middle;spacingLeft=4;spacingRight=4;overflow=hidden;points=[[0,0.5],[1,0.5]];portConstraint=eastwest;rotatable=0;rounded=1;sketch=0;fontColor=#FEFAE0;" parent="tlL8x4SYafilrO8FaroJ-61" vertex="1">
                    <mxGeometry y="150" width="469" height="30" as="geometry"/>
                </mxCell>
                <mxCell id="820" value="- pointCount: int" style="text;strokeColor=none;fillColor=none;align=left;verticalAlign=middle;spacingLeft=4;spacingRight=4;overflow=hidden;points=[[0,0.5],[1,0.5]];portConstraint=eastwest;rotatable=0;rounded=1;sketch=0;fontColor=#FEFAE0;" parent="tlL8x4SYafilrO8FaroJ-61" vertex="1">
                    <mxGeometry y="180" width="469" height="30" as="geometry"/>
                </mxCell>
                <mxCell id="950" value="" style="endArrow=none;dashed=1;html=1;rounded=1;sketch=0;fontColor=#FEFAE0;strokeColor=#DDA15E;fillColor=#BC6C25;curved=0;labelBackgroundColor=#283618;entryX=0.999;entryY=-0.004;entryDx=0;entryDy=0;entryPerimeter=0;" parent="tlL8x4SYafilrO8FaroJ-61" target="55" edge="1">
                    <mxGeometry width="50" height="50" relative="1" as="geometry">
                        <mxPoint y="211.99" as="sourcePoint"/>
                        <mxPoint x="480" y="210" as="targetPoint"/>
                        <Array as="points">
                            <mxPoint x="290" y="210"/>
                        </Array>
                    </mxGeometry>
                </mxCell>
                <mxCell id="55" value="+ Network(Collection&lt;EdgeTransport&gt;)" style="text;strokeColor=none;fillColor=none;align=left;verticalAlign=middle;spacingLeft=4;spacingRight=4;overflow=hidden;points=[[0,0.5],[1,0.5]];portConstraint=eastwest;rotatable=0;rounded=1;sketch=0;fontColor=#FEFAE0;" parent="tlL8x4SYafilrO8FaroJ-61" vertex="1">
                    <mxGeometry y="210" width="469" height="30" as="geometry"/>
                </mxCell>
                <mxCell id="455" value="+ Network()" style="text;strokeColor=none;fillColor=none;align=left;verticalAlign=middle;spacingLeft=4;spacingRight=4;overflow=hidden;points=[[0,0.5],[1,0.5]];portConstraint=eastwest;rotatable=0;rounded=1;sketch=0;fontColor=#FEFAE0;" parent="tlL8x4SYafilrO8FaroJ-61" vertex="1">
                    <mxGeometry y="240" width="469" height="30" as="geometry"/>
                </mxCell>
                <mxCell id="456" value="+ addEdge(EdgeTransport, VertextTransport, VertextTransport)" style="text;strokeColor=none;fillColor=none;align=left;verticalAlign=middle;spacingLeft=4;spacingRight=4;overflow=hidden;points=[[0,0.5],[1,0.5]];portConstraint=eastwest;rotatable=0;rounded=1;sketch=0;fontColor=#FEFAE0;" parent="tlL8x4SYafilrO8FaroJ-61" vertex="1">
                    <mxGeometry y="270" width="469" height="30" as="geometry"/>
                </mxCell>
                <mxCell id="457" value="+ addEdge(EdgeTransport)" style="text;strokeColor=none;fillColor=none;align=left;verticalAlign=middle;spacingLeft=4;spacingRight=4;overflow=hidden;points=[[0,0.5],[1,0.5]];portConstraint=eastwest;rotatable=0;rounded=1;sketch=0;fontColor=#FEFAE0;" parent="tlL8x4SYafilrO8FaroJ-61" vertex="1">
                    <mxGeometry y="300" width="469" height="30" as="geometry"/>
                </mxCell>
                <mxCell id="458" value="+ shortestPath(VertexTransport, VertexTransport)" style="text;strokeColor=none;fillColor=none;align=left;verticalAlign=middle;spacingLeft=4;spacingRight=4;overflow=hidden;points=[[0,0.5],[1,0.5]];portConstraint=eastwest;rotatable=0;rounded=1;sketch=0;fontColor=#FEFAE0;" parent="tlL8x4SYafilrO8FaroJ-61" vertex="1">
                    <mxGeometry y="330" width="469" height="30" as="geometry"/>
                </mxCell>
                <mxCell id="459" value="+ shortestPath(String, String)" style="text;strokeColor=none;fillColor=none;align=left;verticalAlign=middle;spacingLeft=4;spacingRight=4;overflow=hidden;points=[[0,0.5],[1,0.5]];portConstraint=eastwest;rotatable=0;rounded=1;sketch=0;fontColor=#FEFAE0;" parent="tlL8x4SYafilrO8FaroJ-61" vertex="1">
                    <mxGeometry y="360" width="469" height="30" as="geometry"/>
                </mxCell>
                <mxCell id="460" value="+ simplfiedPath(List&lt;EdgeTransport&gt;" style="text;strokeColor=none;fillColor=none;align=left;verticalAlign=middle;spacingLeft=4;spacingRight=4;overflow=hidden;points=[[0,0.5],[1,0.5]];portConstraint=eastwest;rotatable=0;rounded=1;sketch=0;fontColor=#FEFAE0;" parent="tlL8x4SYafilrO8FaroJ-61" vertex="1">
                    <mxGeometry y="390" width="469" height="30" as="geometry"/>
                </mxCell>
                <mxCell id="821" value="+ createPoint(double, double)" style="text;strokeColor=none;fillColor=none;align=left;verticalAlign=middle;spacingLeft=4;spacingRight=4;overflow=hidden;points=[[0,0.5],[1,0.5]];portConstraint=eastwest;rotatable=0;rounded=1;sketch=0;fontColor=#FEFAE0;" parent="tlL8x4SYafilrO8FaroJ-61" vertex="1">
                    <mxGeometry y="420" width="469" height="30" as="geometry"/>
                </mxCell>
                <mxCell id="906" value="- calculareDurationJourney(float)" style="text;strokeColor=none;fillColor=none;align=left;verticalAlign=middle;spacingLeft=4;spacingRight=4;overflow=hidden;points=[[0,0.5],[1,0.5]];portConstraint=eastwest;rotatable=0;rounded=1;sketch=0;fontColor=#FEFAE0;" parent="tlL8x4SYafilrO8FaroJ-61" vertex="1">
                    <mxGeometry y="450" width="469" height="30" as="geometry"/>
                </mxCell>
                <mxCell id="822" value="- calculateDistance(float, float, float, float)" style="text;strokeColor=none;fillColor=none;align=left;verticalAlign=middle;spacingLeft=4;spacingRight=4;overflow=hidden;points=[[0,0.5],[1,0.5]];portConstraint=eastwest;rotatable=0;rounded=1;sketch=0;fontColor=#FEFAE0;" parent="tlL8x4SYafilrO8FaroJ-61" vertex="1">
                    <mxGeometry y="480" width="469" height="30" as="geometry"/>
                </mxCell>
                <mxCell id="823" value="+ deleteUserPoints()" style="text;strokeColor=none;fillColor=none;align=left;verticalAlign=middle;spacingLeft=4;spacingRight=4;overflow=hidden;points=[[0,0.5],[1,0.5]];portConstraint=eastwest;rotatable=0;rounded=1;sketch=0;fontColor=#FEFAE0;" parent="tlL8x4SYafilrO8FaroJ-61" vertex="1">
                    <mxGeometry y="510" width="469" height="30" as="geometry"/>
                </mxCell>
                <mxCell id="927" value="+ getTimes(List&lt;EdgeTransport&gt;, VertexTransport, VertexTransport, Time)" style="text;strokeColor=none;fillColor=none;align=left;verticalAlign=middle;spacingLeft=4;spacingRight=4;overflow=hidden;points=[[0,0.5],[1,0.5]];portConstraint=eastwest;rotatable=0;rounded=1;sketch=0;fontColor=#FEFAE0;" parent="tlL8x4SYafilrO8FaroJ-61" vertex="1">
                    <mxGeometry y="540" width="469" height="30" as="geometry"/>
                </mxCell>
                <mxCell id="929" value="- calculatePathTime(Time, List&lt;EdgeTransport&gt;, VertexTransport, VertexTransport)" style="text;strokeColor=none;fillColor=none;align=left;verticalAlign=middle;spacingLeft=4;spacingRight=4;overflow=hidden;points=[[0,0.5],[1,0.5]];portConstraint=eastwest;rotatable=0;rounded=1;sketch=0;fontColor=#FEFAE0;" parent="tlL8x4SYafilrO8FaroJ-61" vertex="1">
                    <mxGeometry y="570" width="469" height="30" as="geometry"/>
                </mxCell>
                <mxCell id="930" value="- nextDepart(String, Station, Time)" style="text;strokeColor=none;fillColor=none;align=left;verticalAlign=middle;spacingLeft=4;spacingRight=4;overflow=hidden;points=[[0,0.5],[1,0.5]];portConstraint=eastwest;rotatable=0;rounded=1;sketch=0;fontColor=#FEFAE0;" parent="tlL8x4SYafilrO8FaroJ-61" vertex="1">
                    <mxGeometry y="600" width="469" height="30" as="geometry"/>
                </mxCell>
                <mxCell id="931" value="- endAfterStart(String, Station, Station)" style="text;strokeColor=none;fillColor=none;align=left;verticalAlign=middle;spacingLeft=4;spacingRight=4;overflow=hidden;points=[[0,0.5],[1,0.5]];portConstraint=eastwest;rotatable=0;rounded=1;sketch=0;fontColor=#FEFAE0;" parent="tlL8x4SYafilrO8FaroJ-61" vertex="1">
                    <mxGeometry y="630" width="469" height="30" as="geometry"/>
                </mxCell>
                <mxCell id="477" value="Line" style="swimlane;fontStyle=0;childLayout=stackLayout;horizontal=1;startSize=30;horizontalStack=0;resizeParent=1;resizeParentMax=0;resizeLast=0;collapsible=1;marginBottom=0;fillColor=#BC6C25;strokeColor=#DDA15E;fontColor=#FEFAE0;rounded=1;" parent="23" vertex="1">
                    <mxGeometry x="31" y="80" width="229" height="330" as="geometry"/>
                </mxCell>
                <mxCell id="478" value="- name: String" style="text;strokeColor=none;fillColor=none;align=left;verticalAlign=middle;spacingLeft=4;spacingRight=4;overflow=hidden;points=[[0,0.5],[1,0.5]];portConstraint=eastwest;rotatable=0;fontColor=#FEFAE0;rounded=1;" parent="477" vertex="1">
                    <mxGeometry y="30" width="229" height="30" as="geometry"/>
                </mxCell>
                <mxCell id="479" value="- terminalStationDeparture: Station" style="text;strokeColor=none;fillColor=none;align=left;verticalAlign=middle;spacingLeft=4;spacingRight=4;overflow=hidden;points=[[0,0.5],[1,0.5]];portConstraint=eastwest;rotatable=0;fontColor=#FEFAE0;rounded=1;" parent="477" vertex="1">
                    <mxGeometry y="60" width="229" height="30" as="geometry"/>
                </mxCell>
                <mxCell id="480" value="- terminalStationArrival: Station" style="text;strokeColor=none;fillColor=none;align=left;verticalAlign=middle;spacingLeft=4;spacingRight=4;overflow=hidden;points=[[0,0.5],[1,0.5]];portConstraint=eastwest;rotatable=0;fontColor=#FEFAE0;rounded=1;" parent="477" vertex="1">
                    <mxGeometry y="90" width="229" height="30" as="geometry"/>
                </mxCell>
                <mxCell id="481" value="+ starts: ArrayList&lt;Time&gt;" style="text;strokeColor=none;fillColor=none;align=left;verticalAlign=middle;spacingLeft=4;spacingRight=4;overflow=hidden;points=[[0,0.5],[1,0.5]];portConstraint=eastwest;rotatable=0;fontColor=#FEFAE0;rounded=1;" parent="477" vertex="1">
                    <mxGeometry y="120" width="229" height="30" as="geometry"/>
                </mxCell>
                <mxCell id="482" value="+ allStations: ArrayList&lt;Station&gt;" style="text;strokeColor=none;fillColor=none;align=left;verticalAlign=middle;spacingLeft=4;spacingRight=4;overflow=hidden;points=[[0,0.5],[1,0.5]];portConstraint=eastwest;rotatable=0;fontColor=#FEFAE0;rounded=1;" parent="477" vertex="1">
                    <mxGeometry y="150" width="229" height="30" as="geometry"/>
                </mxCell>
                <mxCell id="483" value="" style="endArrow=none;dashed=1;html=1;rounded=1;sketch=0;fontColor=#FEFAE0;strokeColor=#DDA15E;fillColor=#BC6C25;curved=0;labelBackgroundColor=#283618;entryX=0.988;entryY=-0.015;entryDx=0;entryDy=0;entryPerimeter=0;" parent="477" target="484" edge="1">
                    <mxGeometry width="50" height="50" relative="1" as="geometry">
                        <mxPoint y="180" as="sourcePoint"/>
                        <mxPoint x="353.33333333333326" y="180" as="targetPoint"/>
                    </mxGeometry>
                </mxCell>
                <mxCell id="484" value="+ Line(String, Station, Station, Time)" style="text;strokeColor=none;fillColor=none;align=left;verticalAlign=middle;spacingLeft=4;spacingRight=4;overflow=hidden;points=[[0,0.5],[1,0.5]];portConstraint=eastwest;rotatable=0;fontColor=#FEFAE0;rounded=1;" parent="477" vertex="1">
                    <mxGeometry y="180" width="229" height="30" as="geometry"/>
                </mxCell>
                <mxCell id="485" value="+ Line(String, Station)" style="text;strokeColor=none;fillColor=none;align=left;verticalAlign=middle;spacingLeft=4;spacingRight=4;overflow=hidden;points=[[0,0.5],[1,0.5]];portConstraint=eastwest;rotatable=0;fontColor=#FEFAE0;rounded=1;" parent="477" vertex="1">
                    <mxGeometry y="210" width="229" height="30" as="geometry"/>
                </mxCell>
                <mxCell id="486" value="+ addStationsIfNotAlreadyExist(Station)" style="text;strokeColor=none;fillColor=none;align=left;verticalAlign=middle;spacingLeft=4;spacingRight=4;overflow=hidden;points=[[0,0.5],[1,0.5]];portConstraint=eastwest;rotatable=0;fontColor=#FEFAE0;rounded=1;" parent="477" vertex="1">
                    <mxGeometry y="240" width="229" height="30" as="geometry"/>
                </mxCell>
                <mxCell id="487" value="+ addStart(Time)" style="text;strokeColor=none;fillColor=none;align=left;verticalAlign=middle;spacingLeft=4;spacingRight=4;overflow=hidden;points=[[0,0.5],[1,0.5]];portConstraint=eastwest;rotatable=0;fontColor=#FEFAE0;rounded=1;" parent="477" vertex="1">
                    <mxGeometry y="270" width="229" height="30" as="geometry"/>
                </mxCell>
                <mxCell id="818" value="+ toString()" style="text;strokeColor=none;fillColor=none;align=left;verticalAlign=middle;spacingLeft=4;spacingRight=4;overflow=hidden;points=[[0,0.5],[1,0.5]];portConstraint=eastwest;rotatable=0;fontColor=#FEFAE0;rounded=1;" parent="477" vertex="1">
                    <mxGeometry y="300" width="229" height="30" as="geometry"/>
                </mxCell>
                <mxCell id="490" style="edgeStyle=orthogonalEdgeStyle;curved=0;rounded=1;sketch=0;orthogonalLoop=1;jettySize=auto;html=1;fontColor=#FEFAE0;strokeColor=#DDA15E;fillColor=#BC6C25;labelBackgroundColor=#283618;endArrow=diamond;endFill=1;" parent="23" edge="1">
                    <mxGeometry relative="1" as="geometry">
                        <mxPoint x="601" y="950" as="sourcePoint"/>
                        <Array as="points">
                            <mxPoint x="491" y="950"/>
                            <mxPoint x="491" y="950"/>
                        </Array>
                        <mxPoint x="391" y="950" as="targetPoint"/>
                    </mxGeometry>
                </mxCell>
                <mxCell id="491" style="edgeStyle=orthogonalEdgeStyle;curved=0;rounded=1;sketch=0;orthogonalLoop=1;jettySize=auto;html=1;fontColor=#FEFAE0;strokeColor=#DDA15E;fillColor=#BC6C25;labelBackgroundColor=#283618;endArrow=diamond;endFill=1;exitX=0.308;exitY=-0.006;exitDx=0;exitDy=0;exitPerimeter=0;" parent="23" source="tlL8x4SYafilrO8FaroJ-0" edge="1">
                    <mxGeometry relative="1" as="geometry">
                        <mxPoint x="171" y="650" as="sourcePoint"/>
                        <Array as="points">
                            <mxPoint x="171" y="758"/>
                        </Array>
                        <mxPoint x="171" y="410" as="targetPoint"/>
                    </mxGeometry>
                </mxCell>
                <mxCell id="15" value="&lt;font color=&quot;#ffffff&quot;&gt;1&lt;/font&gt;" style="text;html=1;strokeColor=none;fillColor=none;align=center;verticalAlign=middle;whiteSpace=wrap;rounded=0;" parent="23" vertex="1">
                    <mxGeometry x="591" y="510" width="20" height="10" as="geometry"/>
                </mxCell>
                <mxCell id="17" value="&lt;font color=&quot;#ffffff&quot;&gt;1&lt;/font&gt;" style="text;html=1;strokeColor=none;fillColor=none;align=center;verticalAlign=middle;whiteSpace=wrap;rounded=0;" parent="23" vertex="1">
                    <mxGeometry x="881" y="700" width="20" height="30" as="geometry"/>
                </mxCell>
                <mxCell id="14" value="&lt;font color=&quot;#ffffff&quot;&gt;n&lt;/font&gt;" style="text;html=1;strokeColor=none;fillColor=none;align=center;verticalAlign=middle;whiteSpace=wrap;rounded=0;" parent="23" vertex="1">
                    <mxGeometry x="881" y="830" width="20" height="10" as="geometry"/>
                </mxCell>
                <mxCell id="16" value="&lt;font color=&quot;#ffffff&quot;&gt;n&lt;/font&gt;" style="text;html=1;strokeColor=none;fillColor=none;align=center;verticalAlign=middle;whiteSpace=wrap;rounded=0;" parent="23" vertex="1">
                    <mxGeometry x="291" y="750" width="20" height="10" as="geometry"/>
                </mxCell>
                <mxCell id="492" value="&lt;font color=&quot;#ffffff&quot;&gt;2&lt;/font&gt;" style="text;html=1;strokeColor=none;fillColor=none;align=center;verticalAlign=middle;whiteSpace=wrap;rounded=0;" parent="23" vertex="1">
                    <mxGeometry x="400" y="940" width="20" height="10" as="geometry"/>
                </mxCell>
                <mxCell id="493" value="&lt;font color=&quot;#ffffff&quot;&gt;n&lt;/font&gt;" style="text;html=1;strokeColor=none;fillColor=none;align=center;verticalAlign=middle;whiteSpace=wrap;rounded=0;" parent="23" vertex="1">
                    <mxGeometry x="581" y="940" width="20" height="10" as="geometry"/>
                </mxCell>
                <mxCell id="495" value="&lt;font color=&quot;#ffffff&quot;&gt;n&lt;/font&gt;" style="text;html=1;strokeColor=none;fillColor=none;align=center;verticalAlign=middle;whiteSpace=wrap;rounded=0;" parent="23" vertex="1">
                    <mxGeometry x="151" y="420" width="20" height="10" as="geometry"/>
                </mxCell>
                <mxCell id="494" value="&lt;font color=&quot;#ffffff&quot;&gt;n&lt;/font&gt;" style="text;html=1;strokeColor=none;fillColor=none;align=center;verticalAlign=middle;whiteSpace=wrap;rounded=0;" parent="23" vertex="1">
                    <mxGeometry x="151" y="750" width="20" height="10" as="geometry"/>
                </mxCell>
                <mxCell id="826" value="&lt;&lt;abstract&gt;&gt; VertexTransport" style="swimlane;fontStyle=2;childLayout=stackLayout;horizontal=1;startSize=30;horizontalStack=0;resizeParent=1;resizeParentMax=0;resizeLast=0;collapsible=1;marginBottom=0;fillColor=#BC6C25;strokeColor=#DDA15E;fontColor=#FEFAE0;rounded=1;" parent="23" vertex="1">
                    <mxGeometry x="321" y="110" width="229" height="210" as="geometry"/>
                </mxCell>
                <mxCell id="827" value="- name: String" style="text;strokeColor=none;fillColor=none;align=left;verticalAlign=middle;spacingLeft=4;spacingRight=4;overflow=hidden;points=[[0,0.5],[1,0.5]];portConstraint=eastwest;rotatable=0;fontColor=#FEFAE0;rounded=1;" parent="826" vertex="1">
                    <mxGeometry y="30" width="229" height="30" as="geometry"/>
                </mxCell>
                <mxCell id="828" value="- x: Float" style="text;strokeColor=none;fillColor=none;align=left;verticalAlign=middle;spacingLeft=4;spacingRight=4;overflow=hidden;points=[[0,0.5],[1,0.5]];portConstraint=eastwest;rotatable=0;fontColor=#FEFAE0;rounded=1;" parent="826" vertex="1">
                    <mxGeometry y="60" width="229" height="30" as="geometry"/>
                </mxCell>
                <mxCell id="829" value="- y: Float" style="text;strokeColor=none;fillColor=none;align=left;verticalAlign=middle;spacingLeft=4;spacingRight=4;overflow=hidden;points=[[0,0.5],[1,0.5]];portConstraint=eastwest;rotatable=0;fontColor=#FEFAE0;rounded=1;" parent="826" vertex="1">
                    <mxGeometry y="90" width="229" height="30" as="geometry"/>
                </mxCell>
                <mxCell id="832" value="" style="endArrow=none;dashed=1;html=1;rounded=1;sketch=0;fontColor=#FEFAE0;strokeColor=#DDA15E;fillColor=#BC6C25;curved=0;labelBackgroundColor=#283618;" parent="826" edge="1">
                    <mxGeometry width="50" height="50" relative="1" as="geometry">
                        <mxPoint y="120" as="sourcePoint"/>
                        <mxPoint x="230" y="120" as="targetPoint"/>
                    </mxGeometry>
                </mxCell>
                <mxCell id="830" value="+ VertexTransport(String, Float, Float)" style="text;strokeColor=none;fillColor=none;align=left;verticalAlign=middle;spacingLeft=4;spacingRight=4;overflow=hidden;points=[[0,0.5],[1,0.5]];portConstraint=eastwest;rotatable=0;fontColor=#FEFAE0;rounded=1;" parent="826" vertex="1">
                    <mxGeometry y="120" width="229" height="30" as="geometry"/>
                </mxCell>
                <mxCell id="831" value="+ equals(VertexTransport)" style="text;strokeColor=none;fillColor=none;align=left;verticalAlign=middle;spacingLeft=4;spacingRight=4;overflow=hidden;points=[[0,0.5],[1,0.5]];portConstraint=eastwest;rotatable=0;fontColor=#FEFAE0;rounded=1;" parent="826" vertex="1">
                    <mxGeometry y="150" width="229" height="30" as="geometry"/>
                </mxCell>
                <mxCell id="833" value="+ toString()" style="text;strokeColor=none;fillColor=none;align=left;verticalAlign=middle;spacingLeft=4;spacingRight=4;overflow=hidden;points=[[0,0.5],[1,0.5]];portConstraint=eastwest;rotatable=0;fontColor=#FEFAE0;rounded=1;" parent="826" vertex="1">
                    <mxGeometry y="180" width="229" height="30" as="geometry"/>
                </mxCell>
                <mxCell id="839" value="Point" style="swimlane;fontStyle=0;childLayout=stackLayout;horizontal=1;startSize=30;horizontalStack=0;resizeParent=1;resizeParentMax=0;resizeLast=0;collapsible=1;marginBottom=0;fillColor=#BC6C25;strokeColor=#DDA15E;fontColor=#FEFAE0;rounded=1;" parent="23" vertex="1">
                    <mxGeometry x="361" y="390" width="229" height="60" as="geometry"/>
                </mxCell>
                <mxCell id="846" value="+ Point(String, double, double)" style="text;strokeColor=none;fillColor=none;align=left;verticalAlign=middle;spacingLeft=4;spacingRight=4;overflow=hidden;points=[[0,0.5],[1,0.5]];portConstraint=eastwest;rotatable=0;fontColor=#FEFAE0;rounded=1;" parent="839" vertex="1">
                    <mxGeometry y="30" width="229" height="30" as="geometry"/>
                </mxCell>
                <mxCell id="848" style="edgeStyle=orthogonalEdgeStyle;curved=0;rounded=1;sketch=0;orthogonalLoop=1;jettySize=auto;html=1;fontColor=#FEFAE0;strokeColor=#DDA15E;fillColor=#BC6C25;labelBackgroundColor=#283618;dashed=1;dashPattern=8 8;endArrow=block;endFill=0;" parent="23" edge="1">
                    <mxGeometry relative="1" as="geometry">
                        <mxPoint x="421" y="390" as="targetPoint"/>
                        <mxPoint x="421" y="320" as="sourcePoint"/>
                        <Array as="points">
                            <mxPoint x="421" y="320"/>
                        </Array>
                    </mxGeometry>
                </mxCell>
                <mxCell id="851" style="edgeStyle=orthogonalEdgeStyle;curved=0;rounded=1;sketch=0;orthogonalLoop=1;jettySize=auto;html=1;fontColor=#FEFAE0;strokeColor=#DDA15E;fillColor=#BC6C25;labelBackgroundColor=#283618;dashed=1;dashPattern=8 8;endArrow=block;endFill=0;entryX=0.466;entryY=-0.008;entryDx=0;entryDy=0;entryPerimeter=0;exitX=0.086;exitY=1.123;exitDx=0;exitDy=0;exitPerimeter=0;" parent="23" source="833" target="tlL8x4SYafilrO8FaroJ-0" edge="1">
                    <mxGeometry relative="1" as="geometry">
                        <mxPoint x="221" y="520" as="targetPoint"/>
                        <mxPoint x="381" y="400" as="sourcePoint"/>
                        <Array as="points">
                            <mxPoint x="341" y="530"/>
                            <mxPoint x="220" y="530"/>
                        </Array>
                    </mxGeometry>
                </mxCell>
                <mxCell id="488" style="edgeStyle=orthogonalEdgeStyle;curved=0;rounded=1;sketch=0;orthogonalLoop=1;jettySize=auto;html=1;fontColor=#FEFAE0;strokeColor=#DDA15E;fillColor=#BC6C25;labelBackgroundColor=#283618;endArrow=diamond;endFill=0;entryX=0.554;entryY=1;entryDx=0;entryDy=0;entryPerimeter=0;" parent="23" target="931" edge="1">
                    <mxGeometry relative="1" as="geometry">
                        <mxPoint x="881.03" y="840" as="sourcePoint"/>
                        <Array as="points"/>
                        <mxPoint x="881" y="730" as="targetPoint"/>
                    </mxGeometry>
                </mxCell>
                <mxCell id="tlL8x4SYafilrO8FaroJ-65" style="edgeStyle=orthogonalEdgeStyle;curved=0;rounded=1;sketch=0;orthogonalLoop=1;jettySize=auto;html=1;fontColor=#FEFAE0;strokeColor=#DDA15E;fillColor=#BC6C25;labelBackgroundColor=#283618;endArrow=diamond;endFill=0;exitX=0.688;exitY=0;exitDx=0;exitDy=0;exitPerimeter=0;" parent="23" source="tlL8x4SYafilrO8FaroJ-0" edge="1">
                    <mxGeometry relative="1" as="geometry">
                        <mxPoint x="291" y="630" as="sourcePoint"/>
                        <Array as="points">
                            <mxPoint x="291" y="590"/>
                            <mxPoint x="461" y="590"/>
                            <mxPoint x="461" y="520"/>
                        </Array>
                        <mxPoint x="621" y="520" as="targetPoint"/>
                    </mxGeometry>
                </mxCell>
                <mxCell id="855" style="edgeStyle=orthogonalEdgeStyle;curved=0;rounded=1;sketch=0;orthogonalLoop=1;jettySize=auto;html=1;fontColor=#FEFAE0;strokeColor=#DDA15E;fillColor=#BC6C25;labelBackgroundColor=#283618;endArrow=diamond;endFill=0;" parent="23" edge="1">
                    <mxGeometry relative="1" as="geometry">
                        <mxPoint x="471" y="450" as="sourcePoint"/>
                        <Array as="points">
                            <mxPoint x="471" y="480"/>
                        </Array>
                        <mxPoint x="621" y="480" as="targetPoint"/>
                    </mxGeometry>
                </mxCell>
                <mxCell id="857" value="&lt;font color=&quot;#ffffff&quot;&gt;1&lt;/font&gt;" style="text;html=1;strokeColor=none;fillColor=none;align=center;verticalAlign=middle;whiteSpace=wrap;rounded=0;" parent="23" vertex="1">
                    <mxGeometry x="591" y="470" width="20" height="10" as="geometry"/>
                </mxCell>
                <mxCell id="856" value="&lt;font color=&quot;#ffffff&quot;&gt;n&lt;/font&gt;" style="text;html=1;strokeColor=none;fillColor=none;align=center;verticalAlign=middle;whiteSpace=wrap;rounded=0;" parent="23" vertex="1">
                    <mxGeometry x="471" y="450" width="20" height="10" as="geometry"/>
                </mxCell>
                <mxCell id="497" value="DurationJourney" style="swimlane;fontStyle=0;align=center;verticalAlign=top;childLayout=stackLayout;horizontal=1;startSize=26;horizontalStack=0;resizeParent=1;resizeLast=0;collapsible=1;marginBottom=0;rounded=1;shadow=0;strokeWidth=1;fillColor=#BC6C25;strokeColor=#DDA15E;fontColor=#FEFAE0;" parent="136" vertex="1">
                    <mxGeometry x="570" y="190" width="190" height="266" as="geometry">
                        <mxRectangle x="230" y="140" width="160" height="26" as="alternateBounds"/>
                    </mxGeometry>
                </mxCell>
                <mxCell id="498" value="- minute: int" style="text;strokeColor=none;fillColor=none;align=left;verticalAlign=middle;spacingLeft=4;spacingRight=4;overflow=hidden;points=[[0,0.5],[1,0.5]];portConstraint=eastwest;rotatable=0;fontColor=#FEFAE0;rounded=1;" parent="497" vertex="1">
                    <mxGeometry y="26" width="190" height="30" as="geometry"/>
                </mxCell>
                <mxCell id="499" value="- seconde: int" style="text;strokeColor=none;fillColor=none;align=left;verticalAlign=middle;spacingLeft=4;spacingRight=4;overflow=hidden;points=[[0,0.5],[1,0.5]];portConstraint=eastwest;rotatable=0;fontColor=#FEFAE0;rounded=1;" parent="497" vertex="1">
                    <mxGeometry y="56" width="190" height="30" as="geometry"/>
                </mxCell>
                <mxCell id="514" value="" style="endArrow=none;dashed=1;html=1;rounded=1;sketch=0;fontColor=#FEFAE0;strokeColor=#DDA15E;fillColor=#BC6C25;curved=0;labelBackgroundColor=#283618;" parent="497" edge="1">
                    <mxGeometry width="50" height="50" relative="1" as="geometry">
                        <mxPoint y="90" as="sourcePoint"/>
                        <mxPoint x="190" y="90" as="targetPoint"/>
                    </mxGeometry>
                </mxCell>
                <mxCell id="500" value="+ DurationJourney(String, String)" style="text;strokeColor=none;fillColor=none;align=left;verticalAlign=middle;spacingLeft=4;spacingRight=4;overflow=hidden;points=[[0,0.5],[1,0.5]];portConstraint=eastwest;rotatable=0;fontColor=#FEFAE0;rounded=1;" parent="497" vertex="1">
                    <mxGeometry y="86" width="190" height="30" as="geometry"/>
                </mxCell>
                <mxCell id="501" value="+ DurationJourney(int)" style="text;strokeColor=none;fillColor=none;align=left;verticalAlign=middle;spacingLeft=4;spacingRight=4;overflow=hidden;points=[[0,0.5],[1,0.5]];portConstraint=eastwest;rotatable=0;fontColor=#FEFAE0;rounded=1;" parent="497" vertex="1">
                    <mxGeometry y="116" width="190" height="30" as="geometry"/>
                </mxCell>
                <mxCell id="816" value="+ toString()" style="text;strokeColor=none;fillColor=none;align=left;verticalAlign=middle;spacingLeft=4;spacingRight=4;overflow=hidden;points=[[0,0.5],[1,0.5]];portConstraint=eastwest;rotatable=0;fontColor=#FEFAE0;rounded=1;" parent="497" vertex="1">
                    <mxGeometry y="146" width="190" height="30" as="geometry"/>
                </mxCell>
                <mxCell id="904" value="+ toSeconds()" style="text;strokeColor=none;fillColor=none;align=left;verticalAlign=middle;spacingLeft=4;spacingRight=4;overflow=hidden;points=[[0,0.5],[1,0.5]];portConstraint=eastwest;rotatable=0;fontColor=#FEFAE0;rounded=1;" parent="497" vertex="1">
                    <mxGeometry y="176" width="190" height="30" as="geometry"/>
                </mxCell>
                <mxCell id="951" value="+ add(DurationJourney)" style="text;strokeColor=none;fillColor=none;align=left;verticalAlign=middle;spacingLeft=4;spacingRight=4;overflow=hidden;points=[[0,0.5],[1,0.5]];portConstraint=eastwest;rotatable=0;fontColor=#FEFAE0;rounded=1;" vertex="1" parent="497">
                    <mxGeometry y="206" width="190" height="30" as="geometry"/>
                </mxCell>
                <mxCell id="504" value="+ copy()" style="text;strokeColor=none;fillColor=none;align=left;verticalAlign=middle;spacingLeft=4;spacingRight=4;overflow=hidden;points=[[0,0.5],[1,0.5]];portConstraint=eastwest;rotatable=0;fontColor=#FEFAE0;rounded=1;" parent="497" vertex="1">
                    <mxGeometry y="236" width="190" height="30" as="geometry"/>
                </mxCell>
                <mxCell id="511" value="Time" style="swimlane;fontStyle=0;align=center;verticalAlign=top;childLayout=stackLayout;horizontal=1;startSize=26;horizontalStack=0;resizeParent=1;resizeLast=0;collapsible=1;marginBottom=0;rounded=1;shadow=0;strokeWidth=1;fillColor=#BC6C25;strokeColor=#DDA15E;fontColor=#FEFAE0;" parent="136" vertex="1">
                    <mxGeometry x="899" y="120" width="310" height="356" as="geometry">
                        <mxRectangle x="230" y="140" width="160" height="26" as="alternateBounds"/>
                    </mxGeometry>
                </mxCell>
                <mxCell id="512" value="- hour: int" style="text;strokeColor=none;fillColor=none;align=left;verticalAlign=middle;spacingLeft=4;spacingRight=4;overflow=hidden;points=[[0,0.5],[1,0.5]];portConstraint=eastwest;rotatable=0;fontColor=#FEFAE0;rounded=1;" parent="511" vertex="1">
                    <mxGeometry y="26" width="310" height="30" as="geometry"/>
                </mxCell>
                <mxCell id="513" value="- minute: int" style="text;strokeColor=none;fillColor=none;align=left;verticalAlign=middle;spacingLeft=4;spacingRight=4;overflow=hidden;points=[[0,0.5],[1,0.5]];portConstraint=eastwest;rotatable=0;fontColor=#FEFAE0;rounded=1;" parent="511" vertex="1">
                    <mxGeometry y="56" width="310" height="30" as="geometry"/>
                </mxCell>
                <mxCell id="519" value="- seconde: int" style="text;strokeColor=none;fillColor=none;align=left;verticalAlign=middle;spacingLeft=4;spacingRight=4;overflow=hidden;points=[[0,0.5],[1,0.5]];portConstraint=eastwest;rotatable=0;fontColor=#FEFAE0;rounded=1;" parent="511" vertex="1">
                    <mxGeometry y="86" width="310" height="30" as="geometry"/>
                </mxCell>
                <mxCell id="502" value="" style="endArrow=none;dashed=1;html=1;rounded=1;sketch=0;fontColor=#FEFAE0;strokeColor=#DDA15E;fillColor=#BC6C25;curved=0;labelBackgroundColor=#283618;" parent="511" edge="1">
                    <mxGeometry width="50" height="50" relative="1" as="geometry">
                        <mxPoint y="120" as="sourcePoint"/>
                        <mxPoint x="310" y="120" as="targetPoint"/>
                    </mxGeometry>
                </mxCell>
                <mxCell id="520" value="+ Time(int, int, int)" style="text;strokeColor=none;fillColor=none;align=left;verticalAlign=middle;spacingLeft=4;spacingRight=4;overflow=hidden;points=[[0,0.5],[1,0.5]];portConstraint=eastwest;rotatable=0;fontColor=#FEFAE0;rounded=1;" parent="511" vertex="1">
                    <mxGeometry y="116" width="310" height="30" as="geometry"/>
                </mxCell>
                <mxCell id="521" value="+ Time(Time)" style="text;strokeColor=none;fillColor=none;align=left;verticalAlign=middle;spacingLeft=4;spacingRight=4;overflow=hidden;points=[[0,0.5],[1,0.5]];portConstraint=eastwest;rotatable=0;fontColor=#FEFAE0;rounded=1;" parent="511" vertex="1">
                    <mxGeometry y="146" width="310" height="30" as="geometry"/>
                </mxCell>
                <mxCell id="522" value="+ increaseWithADurationJourney(DurationJourney)" style="text;strokeColor=none;fillColor=none;align=left;verticalAlign=middle;spacingLeft=4;spacingRight=4;overflow=hidden;points=[[0,0.5],[1,0.5]];portConstraint=eastwest;rotatable=0;fontColor=#FEFAE0;rounded=1;" parent="511" vertex="1">
                    <mxGeometry y="176" width="310" height="30" as="geometry"/>
                </mxCell>
                <mxCell id="523" value="+ increaseByHours(int)" style="text;strokeColor=none;fillColor=none;align=left;verticalAlign=middle;spacingLeft=4;spacingRight=4;overflow=hidden;points=[[0,0.5],[1,0.5]];portConstraint=eastwest;rotatable=0;fontColor=#FEFAE0;rounded=1;" parent="511" vertex="1">
                    <mxGeometry y="206" width="310" height="30" as="geometry"/>
                </mxCell>
                <mxCell id="524" value="+ increaseByMinute(int)" style="text;strokeColor=none;fillColor=none;align=left;verticalAlign=middle;spacingLeft=4;spacingRight=4;overflow=hidden;points=[[0,0.5],[1,0.5]];portConstraint=eastwest;rotatable=0;fontColor=#FEFAE0;rounded=1;" parent="511" vertex="1">
                    <mxGeometry y="236" width="310" height="30" as="geometry"/>
                </mxCell>
                <mxCell id="525" value="+ increaseBySeconde(int)" style="text;strokeColor=none;fillColor=none;align=left;verticalAlign=middle;spacingLeft=4;spacingRight=4;overflow=hidden;points=[[0,0.5],[1,0.5]];portConstraint=eastwest;rotatable=0;fontColor=#FEFAE0;rounded=1;" parent="511" vertex="1">
                    <mxGeometry y="266" width="310" height="30" as="geometry"/>
                </mxCell>
                <mxCell id="817" value="+ toString()" style="text;strokeColor=none;fillColor=none;align=left;verticalAlign=middle;spacingLeft=4;spacingRight=4;overflow=hidden;points=[[0,0.5],[1,0.5]];portConstraint=eastwest;rotatable=0;fontColor=#FEFAE0;rounded=1;" parent="511" vertex="1">
                    <mxGeometry y="296" width="310" height="30" as="geometry"/>
                </mxCell>
                <mxCell id="526" value="+compareTo(Time)" style="text;strokeColor=none;fillColor=none;align=left;verticalAlign=middle;spacingLeft=4;spacingRight=4;overflow=hidden;points=[[0,0.5],[1,0.5]];portConstraint=eastwest;rotatable=0;fontColor=#FEFAE0;rounded=1;" parent="511" vertex="1">
                    <mxGeometry y="326" width="310" height="30" as="geometry"/>
                </mxCell>
                <mxCell id="632" style="edgeStyle=orthogonalEdgeStyle;curved=0;rounded=1;sketch=0;orthogonalLoop=1;jettySize=auto;html=1;fontColor=#FEFAE0;strokeColor=#DDA15E;fillColor=#BC6C25;endArrow=none;endFill=0;exitX=0.47;exitY=-0.01;exitDx=0;exitDy=0;exitPerimeter=0;entryX=1;entryY=0.5;entryDx=0;entryDy=0;" parent="136" source="497" target="445" edge="1">
                    <mxGeometry relative="1" as="geometry">
                        <Array as="points">
                            <mxPoint x="659" y="160"/>
                            <mxPoint x="390" y="160"/>
                        </Array>
                        <mxPoint x="1039" y="160" as="sourcePoint"/>
                        <mxPoint x="609" y="160" as="targetPoint"/>
                    </mxGeometry>
                </mxCell>
                <mxCell id="698" style="edgeStyle=orthogonalEdgeStyle;curved=0;rounded=1;sketch=0;orthogonalLoop=1;jettySize=auto;html=1;fontColor=#FEFAE0;strokeColor=#DDA15E;fillColor=#BC6C25;endArrow=none;endFill=0;" parent="136" edge="1">
                    <mxGeometry relative="1" as="geometry">
                        <Array as="points">
                            <mxPoint x="818" y="260"/>
                        </Array>
                        <mxPoint x="760" y="260" as="sourcePoint"/>
                        <mxPoint x="900" y="260" as="targetPoint"/>
                    </mxGeometry>
                </mxCell>
                <mxCell id="894" style="edgeStyle=orthogonalEdgeStyle;curved=0;rounded=1;sketch=0;orthogonalLoop=1;jettySize=auto;html=1;fontColor=#FEFAE0;strokeColor=#DDA15E;fillColor=#BC6C25;endArrow=none;endFill=0;exitX=0.349;exitY=-0.001;exitDx=0;exitDy=0;exitPerimeter=0;entryX=0.426;entryY=1.133;entryDx=0;entryDy=0;entryPerimeter=0;" parent="136" source="tlL8x4SYafilrO8FaroJ-61" target="504" edge="1">
                    <mxGeometry relative="1" as="geometry">
                        <Array as="points">
                            <mxPoint x="824" y="510"/>
                            <mxPoint x="651" y="510"/>
                        </Array>
                        <mxPoint x="859.3" y="537.64" as="sourcePoint"/>
                        <mxPoint x="720.0000000000002" y="510" as="targetPoint"/>
                    </mxGeometry>
                </mxCell>
                <mxCell id="895" style="edgeStyle=orthogonalEdgeStyle;curved=0;rounded=1;sketch=0;orthogonalLoop=1;jettySize=auto;html=1;fontColor=#FEFAE0;strokeColor=#DDA15E;fillColor=#BC6C25;endArrow=none;endFill=0;entryX=0.452;entryY=1.011;entryDx=0;entryDy=0;entryPerimeter=0;" parent="136" target="451" edge="1">
                    <mxGeometry relative="1" as="geometry">
                        <Array as="points">
                            <mxPoint x="450" y="640"/>
                            <mxPoint x="450" y="530"/>
                            <mxPoint x="220" y="530"/>
                        </Array>
                        <mxPoint x="660" y="640" as="sourcePoint"/>
                        <mxPoint x="220" y="470" as="targetPoint"/>
                    </mxGeometry>
                </mxCell>
                <mxCell id="898" style="edgeStyle=orthogonalEdgeStyle;curved=0;rounded=1;sketch=0;orthogonalLoop=1;jettySize=auto;html=1;fontColor=#FEFAE0;strokeColor=#DDA15E;fillColor=#BC6C25;endArrow=none;endFill=0;entryX=0.426;entryY=1.133;entryDx=0;entryDy=0;entryPerimeter=0;exitX=0;exitY=0.333;exitDx=0;exitDy=0;exitPerimeter=0;" parent="136" source="430" edge="1">
                    <mxGeometry relative="1" as="geometry">
                        <Array as="points">
                            <mxPoint x="1260" y="280"/>
                            <mxPoint x="1260" y="500"/>
                            <mxPoint x="1180" y="500"/>
                            <mxPoint x="1180" y="630"/>
                        </Array>
                        <mxPoint x="1260" y="280" as="sourcePoint"/>
                        <mxPoint x="1099.9999999999998" y="630" as="targetPoint"/>
                    </mxGeometry>
                </mxCell>
                <mxCell id="154" value="View" style="swimlane;whiteSpace=wrap;html=1;strokeColor=#666666;fillColor=#f5f5f5;fontColor=#333333;" parent="WIyWlLk6GJQsqaUBKTNV-1" vertex="1">
                    <mxGeometry x="1300" y="550" width="1090" height="1240" as="geometry"/>
                </mxCell>
                <mxCell id="247" value="TextAreaDemo" style="swimlane;fontStyle=0;childLayout=stackLayout;horizontal=1;startSize=30;horizontalStack=0;resizeParent=1;resizeParentMax=0;resizeLast=0;collapsible=1;marginBottom=0;rounded=1;sketch=0;fontColor=#FEFAE0;strokeColor=#DDA15E;fillColor=#BC6C25;" parent="154" vertex="1">
                    <mxGeometry x="760" y="440" width="278" height="540" as="geometry"/>
                </mxCell>
                <mxCell id="248" value="- textArea: JTextField" style="text;strokeColor=none;fillColor=none;align=left;verticalAlign=middle;spacingLeft=4;spacingRight=4;overflow=hidden;points=[[0,0.5],[1,0.5]];portConstraint=eastwest;rotatable=0;rounded=1;sketch=0;fontColor=#FEFAE0;" parent="247" vertex="1">
                    <mxGeometry y="30" width="278" height="30" as="geometry"/>
                </mxCell>
                <mxCell id="249" value="- static final COMMIT_ACTION: String" style="text;strokeColor=none;fillColor=none;align=left;verticalAlign=middle;spacingLeft=4;spacingRight=4;overflow=hidden;points=[[0,0.5],[1,0.5]];portConstraint=eastwest;rotatable=0;rounded=1;sketch=0;fontColor=#FEFAE0;" parent="247" vertex="1">
                    <mxGeometry y="60" width="278" height="30" as="geometry"/>
                </mxCell>
                <mxCell id="250" value="- static Mode: enum" style="text;strokeColor=none;fillColor=none;align=left;verticalAlign=middle;spacingLeft=4;spacingRight=4;overflow=hidden;points=[[0,0.5],[1,0.5]];portConstraint=eastwest;rotatable=0;rounded=1;sketch=0;fontColor=#FEFAE0;" parent="247" vertex="1">
                    <mxGeometry y="90" width="278" height="30" as="geometry"/>
                </mxCell>
                <mxCell id="717" value="- words: List&lt;String&gt;" style="text;strokeColor=none;fillColor=none;align=left;verticalAlign=middle;spacingLeft=4;spacingRight=4;overflow=hidden;points=[[0,0.5],[1,0.5]];portConstraint=eastwest;rotatable=0;rounded=1;sketch=0;fontColor=#FEFAE0;" parent="247" vertex="1">
                    <mxGeometry y="120" width="278" height="30" as="geometry"/>
                </mxCell>
                <mxCell id="718" value="- mode: Mode" style="text;strokeColor=none;fillColor=none;align=left;verticalAlign=middle;spacingLeft=4;spacingRight=4;overflow=hidden;points=[[0,0.5],[1,0.5]];portConstraint=eastwest;rotatable=0;rounded=1;sketch=0;fontColor=#FEFAE0;" parent="247" vertex="1">
                    <mxGeometry y="150" width="278" height="30" as="geometry"/>
                </mxCell>
                <mxCell id="704" value="" style="endArrow=none;dashed=1;html=1;rounded=1;sketch=0;fontColor=#FEFAE0;strokeColor=#DDA15E;fillColor=#BC6C25;curved=0;exitX=0.01;exitY=0.1;exitDx=0;exitDy=0;exitPerimeter=0;labelBackgroundColor=#283618;" parent="247" edge="1">
                    <mxGeometry width="50" height="50" relative="1" as="geometry">
                        <mxPoint x="-4.547473508864641e-13" y="180.99" as="sourcePoint"/>
                        <mxPoint x="280" y="180" as="targetPoint"/>
                    </mxGeometry>
                </mxCell>
                <mxCell id="719" value="+ TextAreaDemo(List&lt;String&gt;)" style="text;strokeColor=none;fillColor=none;align=left;verticalAlign=middle;spacingLeft=4;spacingRight=4;overflow=hidden;points=[[0,0.5],[1,0.5]];portConstraint=eastwest;rotatable=0;rounded=1;sketch=0;fontColor=#FEFAE0;" parent="247" vertex="1">
                    <mxGeometry y="180" width="278" height="30" as="geometry"/>
                </mxCell>
                <mxCell id="720" value="- initComponents()" style="text;strokeColor=none;fillColor=none;align=left;verticalAlign=middle;spacingLeft=4;spacingRight=4;overflow=hidden;points=[[0,0.5],[1,0.5]];portConstraint=eastwest;rotatable=0;rounded=1;sketch=0;fontColor=#FEFAE0;" parent="247" vertex="1">
                    <mxGeometry y="210" width="278" height="30" as="geometry"/>
                </mxCell>
                <mxCell id="721" value="- changedUpdate(DocumentEvent)" style="text;strokeColor=none;fillColor=none;align=left;verticalAlign=middle;spacingLeft=4;spacingRight=4;overflow=hidden;points=[[0,0.5],[1,0.5]];portConstraint=eastwest;rotatable=0;rounded=1;sketch=0;fontColor=#FEFAE0;" parent="247" vertex="1">
                    <mxGeometry y="240" width="278" height="30" as="geometry"/>
                </mxCell>
                <mxCell id="722" value="- removeUpdate(DocumentEvent)" style="text;strokeColor=none;fillColor=none;align=left;verticalAlign=middle;spacingLeft=4;spacingRight=4;overflow=hidden;points=[[0,0.5],[1,0.5]];portConstraint=eastwest;rotatable=0;rounded=1;sketch=0;fontColor=#FEFAE0;" parent="247" vertex="1">
                    <mxGeometry y="270" width="278" height="30" as="geometry"/>
                </mxCell>
                <mxCell id="723" value="- insertUpdate(DocumentEvent)" style="text;strokeColor=none;fillColor=none;align=left;verticalAlign=middle;spacingLeft=4;spacingRight=4;overflow=hidden;points=[[0,0.5],[1,0.5]];portConstraint=eastwest;rotatable=0;rounded=1;sketch=0;fontColor=#FEFAE0;" parent="247" vertex="1">
                    <mxGeometry y="300" width="278" height="30" as="geometry"/>
                </mxCell>
                <mxCell id="754" value="CompletionTask" style="swimlane;fontStyle=0;childLayout=stackLayout;horizontal=1;startSize=30;horizontalStack=0;resizeParent=1;resizeParentMax=0;resizeLast=0;collapsible=1;marginBottom=0;fillColor=#BC6C25;strokeColor=#DDA15E;fontColor=#FEFAE0;rounded=1;" parent="247" vertex="1">
                    <mxGeometry y="330" width="278" height="150" as="geometry"/>
                </mxCell>
                <mxCell id="755" value="+ completion: String" style="text;strokeColor=none;fillColor=none;align=left;verticalAlign=middle;spacingLeft=4;spacingRight=4;overflow=hidden;points=[[0,0.5],[1,0.5]];portConstraint=eastwest;rotatable=0;fontColor=#FEFAE0;rounded=1;" parent="754" vertex="1">
                    <mxGeometry y="30" width="278" height="30" as="geometry"/>
                </mxCell>
                <mxCell id="756" value="+ position: int" style="text;strokeColor=none;fillColor=none;align=left;verticalAlign=middle;spacingLeft=4;spacingRight=4;overflow=hidden;points=[[0,0.5],[1,0.5]];portConstraint=eastwest;rotatable=0;fontColor=#FEFAE0;rounded=1;" parent="754" vertex="1">
                    <mxGeometry y="60" width="278" height="30" as="geometry"/>
                </mxCell>
                <mxCell id="764" value="" style="endArrow=none;dashed=1;html=1;rounded=1;sketch=0;fontColor=#FEFAE0;strokeColor=#DDA15E;fillColor=#BC6C25;curved=0;exitX=0.01;exitY=0.1;exitDx=0;exitDy=0;exitPerimeter=0;labelBackgroundColor=#283618;" parent="754" edge="1">
                    <mxGeometry width="50" height="50" relative="1" as="geometry">
                        <mxPoint y="90.98999999999978" as="sourcePoint"/>
                        <mxPoint x="280" y="89.99999999999977" as="targetPoint"/>
                    </mxGeometry>
                </mxCell>
                <mxCell id="757" value="+ CompletionTask(String, int)" style="text;strokeColor=none;fillColor=none;align=left;verticalAlign=middle;spacingLeft=4;spacingRight=4;overflow=hidden;points=[[0,0.5],[1,0.5]];portConstraint=eastwest;rotatable=0;fontColor=#FEFAE0;rounded=1;" parent="754" vertex="1">
                    <mxGeometry y="90" width="278" height="30" as="geometry"/>
                </mxCell>
                <mxCell id="879" value="+ run()" style="text;strokeColor=none;fillColor=none;align=left;verticalAlign=middle;spacingLeft=4;spacingRight=4;overflow=hidden;points=[[0,0.5],[1,0.5]];portConstraint=eastwest;rotatable=0;fontColor=#FEFAE0;rounded=1;" parent="754" vertex="1">
                    <mxGeometry y="120" width="278" height="30" as="geometry"/>
                </mxCell>
                <mxCell id="759" value="CompletionTask" style="swimlane;fontStyle=0;childLayout=stackLayout;horizontal=1;startSize=30;horizontalStack=0;resizeParent=1;resizeParentMax=0;resizeLast=0;collapsible=1;marginBottom=0;fillColor=#BC6C25;strokeColor=#DDA15E;fontColor=#FEFAE0;rounded=1;" parent="247" vertex="1">
                    <mxGeometry y="480" width="278" height="60" as="geometry"/>
                </mxCell>
                <mxCell id="760" value="+ actionPerformed(ActionEvent)" style="text;strokeColor=none;fillColor=none;align=left;verticalAlign=middle;spacingLeft=4;spacingRight=4;overflow=hidden;points=[[0,0.5],[1,0.5]];portConstraint=eastwest;rotatable=0;fontColor=#FEFAE0;rounded=1;" parent="759" vertex="1">
                    <mxGeometry y="30" width="278" height="30" as="geometry"/>
                </mxCell>
                <mxCell id="288" value="GraphPanel" style="swimlane;fontStyle=0;childLayout=stackLayout;horizontal=1;startSize=30;horizontalStack=0;resizeParent=1;resizeParentMax=0;resizeLast=0;collapsible=1;marginBottom=0;rounded=1;sketch=0;fontColor=#FEFAE0;strokeColor=#DDA15E;fillColor=#BC6C25;" parent="154" vertex="1">
                    <mxGeometry x="390" y="350" width="278" height="240" as="geometry"/>
                </mxCell>
                <mxCell id="289" value="- panelWidth, panelHeight: int" style="text;strokeColor=none;fillColor=none;align=left;verticalAlign=middle;spacingLeft=4;spacingRight=4;overflow=hidden;points=[[0,0.5],[1,0.5]];portConstraint=eastwest;rotatable=0;rounded=1;sketch=0;fontColor=#FEFAE0;" parent="288" vertex="1">
                    <mxGeometry y="30" width="278" height="30" as="geometry"/>
                </mxCell>
                <mxCell id="290" value="- layout: Layout&lt;Station, EdgeTransport&gt;" style="text;strokeColor=none;fillColor=none;align=left;verticalAlign=middle;spacingLeft=4;spacingRight=4;overflow=hidden;points=[[0,0.5],[1,0.5]];portConstraint=eastwest;rotatable=0;rounded=1;sketch=0;fontColor=#FEFAE0;" parent="288" vertex="1">
                    <mxGeometry y="60" width="278" height="30" as="geometry"/>
                </mxCell>
                <mxCell id="292" value="+ vv: VisualizationViewer&lt;Station, EdgeTransport&gt;" style="text;strokeColor=none;fillColor=none;align=left;verticalAlign=middle;spacingLeft=4;spacingRight=4;overflow=hidden;points=[[0,0.5],[1,0.5]];portConstraint=eastwest;rotatable=0;rounded=1;sketch=0;fontColor=#FEFAE0;" parent="288" vertex="1">
                    <mxGeometry y="90" width="278" height="30" as="geometry"/>
                </mxCell>
                <mxCell id="866" value="+ layout: Layout&lt;VertexTransport, EdgeTransport&gt;" style="text;strokeColor=none;fillColor=none;align=left;verticalAlign=middle;spacingLeft=4;spacingRight=4;overflow=hidden;points=[[0,0.5],[1,0.5]];portConstraint=eastwest;rotatable=0;rounded=1;sketch=0;fontColor=#FEFAE0;" parent="288" vertex="1">
                    <mxGeometry y="120" width="278" height="30" as="geometry"/>
                </mxCell>
                <mxCell id="293" value="+ graphView: GraphData" style="text;strokeColor=none;fillColor=none;align=left;verticalAlign=middle;spacingLeft=4;spacingRight=4;overflow=hidden;points=[[0,0.5],[1,0.5]];portConstraint=eastwest;rotatable=0;rounded=1;sketch=0;fontColor=#FEFAE0;" parent="288" vertex="1">
                    <mxGeometry y="150" width="278" height="30" as="geometry"/>
                </mxCell>
                <mxCell id="294" value="+ decorator: GraphDecorator" style="text;strokeColor=none;fillColor=none;align=left;verticalAlign=middle;spacingLeft=4;spacingRight=4;overflow=hidden;points=[[0,0.5],[1,0.5]];portConstraint=eastwest;rotatable=0;rounded=1;sketch=0;fontColor=#FEFAE0;" parent="288" vertex="1">
                    <mxGeometry y="180" width="278" height="30" as="geometry"/>
                </mxCell>
                <mxCell id="295" value="" style="endArrow=none;dashed=1;html=1;rounded=1;sketch=0;fontColor=#FEFAE0;strokeColor=#DDA15E;fillColor=#BC6C25;curved=0;exitX=0.01;exitY=0.1;exitDx=0;exitDy=0;exitPerimeter=0;labelBackgroundColor=#283618;" parent="288" edge="1">
                    <mxGeometry width="50" height="50" relative="1" as="geometry">
                        <mxPoint x="-4.547473508864641e-13" y="180.99" as="sourcePoint"/>
                        <mxPoint x="280" y="180" as="targetPoint"/>
                    </mxGeometry>
                </mxCell>
                <mxCell id="766" value="+ GraphPanel(GraphData)" style="text;strokeColor=none;fillColor=none;align=left;verticalAlign=middle;spacingLeft=4;spacingRight=4;overflow=hidden;points=[[0,0.5],[1,0.5]];portConstraint=eastwest;rotatable=0;rounded=1;sketch=0;fontColor=#FEFAE0;" parent="288" vertex="1">
                    <mxGeometry y="210" width="278" height="30" as="geometry"/>
                </mxCell>
                <mxCell id="699" value="View" style="swimlane;fontStyle=0;childLayout=stackLayout;horizontal=1;startSize=30;horizontalStack=0;resizeParent=1;resizeParentMax=0;resizeLast=0;collapsible=1;marginBottom=0;rounded=1;sketch=0;fontColor=#FEFAE0;strokeColor=#DDA15E;fillColor=#BC6C25;" parent="154" vertex="1">
                    <mxGeometry x="60" y="50" width="278" height="570" as="geometry"/>
                </mxCell>
                <mxCell id="700" value="- panel: JPanel" style="text;strokeColor=none;fillColor=none;align=left;verticalAlign=middle;spacingLeft=4;spacingRight=4;overflow=hidden;points=[[0,0.5],[1,0.5]];portConstraint=eastwest;rotatable=0;rounded=1;sketch=0;fontColor=#FEFAE0;" parent="699" vertex="1">
                    <mxGeometry y="30" width="278" height="30" as="geometry"/>
                </mxCell>
                <mxCell id="706" value="- graphPanel: GraphPanel" style="text;strokeColor=none;fillColor=none;align=left;verticalAlign=middle;spacingLeft=4;spacingRight=4;overflow=hidden;points=[[0,0.5],[1,0.5]];portConstraint=eastwest;rotatable=0;rounded=1;sketch=0;fontColor=#FEFAE0;" parent="699" vertex="1">
                    <mxGeometry y="60" width="278" height="30" as="geometry"/>
                </mxCell>
                <mxCell id="708" value="- leftPanel: JPanel" style="text;strokeColor=none;fillColor=none;align=left;verticalAlign=middle;spacingLeft=4;spacingRight=4;overflow=hidden;points=[[0,0.5],[1,0.5]];portConstraint=eastwest;rotatable=0;rounded=1;sketch=0;fontColor=#FEFAE0;" parent="699" vertex="1">
                    <mxGeometry y="90" width="278" height="30" as="geometry"/>
                </mxCell>
                <mxCell id="709" value="- schedulesPanel: SchedulesPanel" style="text;strokeColor=none;fillColor=none;align=left;verticalAlign=middle;spacingLeft=4;spacingRight=4;overflow=hidden;points=[[0,0.5],[1,0.5]];portConstraint=eastwest;rotatable=0;rounded=1;sketch=0;fontColor=#FEFAE0;" parent="699" vertex="1">
                    <mxGeometry y="120" width="278" height="30" as="geometry"/>
                </mxCell>
                <mxCell id="710" value="- generalPanel: JPanel" style="text;strokeColor=none;fillColor=none;align=left;verticalAlign=middle;spacingLeft=4;spacingRight=4;overflow=hidden;points=[[0,0.5],[1,0.5]];portConstraint=eastwest;rotatable=0;rounded=1;sketch=0;fontColor=#FEFAE0;" parent="699" vertex="1">
                    <mxGeometry y="150" width="278" height="30" as="geometry"/>
                </mxCell>
                <mxCell id="711" value="- lines: HashMap&lt;String, Line&gt;" style="text;strokeColor=none;fillColor=none;align=left;verticalAlign=middle;spacingLeft=4;spacingRight=4;overflow=hidden;points=[[0,0.5],[1,0.5]];portConstraint=eastwest;rotatable=0;rounded=1;sketch=0;fontColor=#FEFAE0;" parent="699" vertex="1">
                    <mxGeometry y="180" width="278" height="30" as="geometry"/>
                </mxCell>
                <mxCell id="712" value="- frame: JFrame" style="text;strokeColor=none;fillColor=none;align=left;verticalAlign=middle;spacingLeft=4;spacingRight=4;overflow=hidden;points=[[0,0.5],[1,0.5]];portConstraint=eastwest;rotatable=0;rounded=1;sketch=0;fontColor=#FEFAE0;" parent="699" vertex="1">
                    <mxGeometry y="210" width="278" height="30" as="geometry"/>
                </mxCell>
                <mxCell id="713" value="- searchPanel: SearchPanel" style="text;strokeColor=none;fillColor=none;align=left;verticalAlign=middle;spacingLeft=4;spacingRight=4;overflow=hidden;points=[[0,0.5],[1,0.5]];portConstraint=eastwest;rotatable=0;rounded=1;sketch=0;fontColor=#FEFAE0;" parent="699" vertex="1">
                    <mxGeometry y="240" width="278" height="30" as="geometry"/>
                </mxCell>
                <mxCell id="937" value="- currentTime: Time" style="text;strokeColor=none;fillColor=none;align=left;verticalAlign=middle;spacingLeft=4;spacingRight=4;overflow=hidden;points=[[0,0.5],[1,0.5]];portConstraint=eastwest;rotatable=0;rounded=1;sketch=0;fontColor=#FEFAE0;" parent="699" vertex="1">
                    <mxGeometry y="270" width="278" height="30" as="geometry"/>
                </mxCell>
                <mxCell id="938" value="" style="endArrow=none;dashed=1;html=1;rounded=1;sketch=0;fontColor=#FEFAE0;strokeColor=#DDA15E;fillColor=#BC6C25;curved=0;exitX=0.01;exitY=0.1;exitDx=0;exitDy=0;exitPerimeter=0;labelBackgroundColor=#283618;" parent="699" edge="1">
                    <mxGeometry width="50" height="50" relative="1" as="geometry">
                        <mxPoint x="-4.547473508864641e-13" y="300.99" as="sourcePoint"/>
                        <mxPoint x="280" y="300" as="targetPoint"/>
                    </mxGeometry>
                </mxCell>
                <mxCell id="716" value="+ View(GraphData)" style="text;strokeColor=none;fillColor=none;align=left;verticalAlign=middle;spacingLeft=4;spacingRight=4;overflow=hidden;points=[[0,0.5],[1,0.5]];portConstraint=eastwest;rotatable=0;rounded=1;sketch=0;fontColor=#FEFAE0;" parent="699" vertex="1">
                    <mxGeometry y="300" width="278" height="30" as="geometry"/>
                </mxCell>
                <mxCell id="880" value="- createPanel(GraphData)" style="text;strokeColor=none;fillColor=none;align=left;verticalAlign=middle;spacingLeft=4;spacingRight=4;overflow=hidden;points=[[0,0.5],[1,0.5]];portConstraint=eastwest;rotatable=0;rounded=1;sketch=0;fontColor=#FEFAE0;" parent="699" vertex="1">
                    <mxGeometry y="330" width="278" height="30" as="geometry"/>
                </mxCell>
                <mxCell id="881" value="+ createPathPanel(List&lt;EdgeTransport, String,&#10;VertexTransport, VertexTransport)" style="text;strokeColor=none;fillColor=none;align=left;verticalAlign=middle;spacingLeft=4;spacingRight=4;overflow=hidden;points=[[0,0.5],[1,0.5]];portConstraint=eastwest;rotatable=0;rounded=1;sketch=0;fontColor=#FEFAE0;" parent="699" vertex="1">
                    <mxGeometry y="360" width="278" height="30" as="geometry"/>
                </mxCell>
                <mxCell id="884" value="- getSegments(List&lt;EdgeTransport&gt;)" style="text;strokeColor=none;fillColor=none;align=left;verticalAlign=middle;spacingLeft=4;spacingRight=4;overflow=hidden;points=[[0,0.5],[1,0.5]];portConstraint=eastwest;rotatable=0;rounded=1;sketch=0;fontColor=#FEFAE0;" parent="699" vertex="1">
                    <mxGeometry y="390" width="278" height="30" as="geometry"/>
                </mxCell>
                <mxCell id="885" value="+ updateView(GraphData)" style="text;strokeColor=none;fillColor=none;align=left;verticalAlign=middle;spacingLeft=4;spacingRight=4;overflow=hidden;points=[[0,0.5],[1,0.5]];portConstraint=eastwest;rotatable=0;rounded=1;sketch=0;fontColor=#FEFAE0;" parent="699" vertex="1">
                    <mxGeometry y="420" width="278" height="30" as="geometry"/>
                </mxCell>
                <mxCell id="939" value="CustomPair" style="swimlane;fontStyle=0;childLayout=stackLayout;horizontal=1;startSize=30;horizontalStack=0;resizeParent=1;resizeParentMax=0;resizeLast=0;collapsible=1;marginBottom=0;rounded=1;sketch=0;fontColor=#FEFAE0;strokeColor=#DDA15E;fillColor=#BC6C25;" parent="699" vertex="1">
                    <mxGeometry y="450" width="278" height="120" as="geometry"/>
                </mxCell>
                <mxCell id="940" value="- first: String" style="text;strokeColor=none;fillColor=none;align=left;verticalAlign=middle;spacingLeft=4;spacingRight=4;overflow=hidden;points=[[0,0.5],[1,0.5]];portConstraint=eastwest;rotatable=0;rounded=1;sketch=0;fontColor=#FEFAE0;" parent="939" vertex="1">
                    <mxGeometry y="30" width="278" height="30" as="geometry"/>
                </mxCell>
                <mxCell id="941" value="- second: VertexTransport" style="text;strokeColor=none;fillColor=none;align=left;verticalAlign=middle;spacingLeft=4;spacingRight=4;overflow=hidden;points=[[0,0.5],[1,0.5]];portConstraint=eastwest;rotatable=0;rounded=1;sketch=0;fontColor=#FEFAE0;" parent="939" vertex="1">
                    <mxGeometry y="60" width="278" height="30" as="geometry"/>
                </mxCell>
                <mxCell id="946" value="" style="endArrow=none;dashed=1;html=1;rounded=1;sketch=0;fontColor=#FEFAE0;strokeColor=#DDA15E;fillColor=#BC6C25;curved=0;exitX=0.01;exitY=0.1;exitDx=0;exitDy=0;exitPerimeter=0;labelBackgroundColor=#283618;" parent="939" edge="1">
                    <mxGeometry width="50" height="50" relative="1" as="geometry">
                        <mxPoint x="-4.547473508864641e-13" y="90.99000000000001" as="sourcePoint"/>
                        <mxPoint x="280" y="90" as="targetPoint"/>
                    </mxGeometry>
                </mxCell>
                <mxCell id="942" value="+ CustomPair(String, VertexTransport)" style="text;strokeColor=none;fillColor=none;align=left;verticalAlign=middle;spacingLeft=4;spacingRight=4;overflow=hidden;points=[[0,0.5],[1,0.5]];portConstraint=eastwest;rotatable=0;rounded=1;sketch=0;fontColor=#FEFAE0;" parent="939" vertex="1">
                    <mxGeometry y="90" width="278" height="30" as="geometry"/>
                </mxCell>
                <mxCell id="769" value="SchedulesPanel" style="swimlane;fontStyle=0;childLayout=stackLayout;horizontal=1;startSize=30;horizontalStack=0;resizeParent=1;resizeParentMax=0;resizeLast=0;collapsible=1;marginBottom=0;rounded=1;sketch=0;fontColor=#FEFAE0;strokeColor=#DDA15E;fillColor=#BC6C25;" parent="154" vertex="1">
                    <mxGeometry x="420" y="60" width="290" height="60" as="geometry"/>
                </mxCell>
                <mxCell id="770" value="+ SchedulesPanel(Station, HashMap&lt;String, Line&gt;)" style="text;strokeColor=none;fillColor=none;align=left;verticalAlign=middle;spacingLeft=4;spacingRight=4;overflow=hidden;points=[[0,0.5],[1,0.5]];portConstraint=eastwest;rotatable=0;rounded=1;sketch=0;fontColor=#FEFAE0;" parent="769" vertex="1">
                    <mxGeometry y="30" width="290" height="30" as="geometry"/>
                </mxCell>
                <mxCell id="779" value="GraphDecorator" style="swimlane;fontStyle=0;childLayout=stackLayout;horizontal=1;startSize=30;horizontalStack=0;resizeParent=1;resizeParentMax=0;resizeLast=0;collapsible=1;marginBottom=0;rounded=1;sketch=0;fontColor=#FEFAE0;strokeColor=#DDA15E;fillColor=#BC6C25;" parent="154" vertex="1">
                    <mxGeometry x="410" y="810" width="278" height="360" as="geometry"/>
                </mxCell>
                <mxCell id="781" value="- scale: int" style="text;strokeColor=none;fillColor=none;align=left;verticalAlign=middle;spacingLeft=4;spacingRight=4;overflow=hidden;points=[[0,0.5],[1,0.5]];portConstraint=eastwest;rotatable=0;rounded=1;sketch=0;fontColor=#FEFAE0;" parent="779" vertex="1">
                    <mxGeometry y="30" width="278" height="30" as="geometry"/>
                </mxCell>
                <mxCell id="782" value="+ shortestPathEdges: List&lt;EdgeTransport&gt;" style="text;strokeColor=none;fillColor=none;align=left;verticalAlign=middle;spacingLeft=4;spacingRight=4;overflow=hidden;points=[[0,0.5],[1,0.5]];portConstraint=eastwest;rotatable=0;rounded=1;sketch=0;fontColor=#FEFAE0;" parent="779" vertex="1">
                    <mxGeometry y="60" width="278" height="30" as="geometry"/>
                </mxCell>
                <mxCell id="783" value="+ shortestPathStations: List&lt;VertexTransport&gt;" style="text;strokeColor=none;fillColor=none;align=left;verticalAlign=middle;spacingLeft=4;spacingRight=4;overflow=hidden;points=[[0,0.5],[1,0.5]];portConstraint=eastwest;rotatable=0;rounded=1;sketch=0;fontColor=#FEFAE0;" parent="779" vertex="1">
                    <mxGeometry y="90" width="278" height="30" as="geometry"/>
                </mxCell>
                <mxCell id="744" value="" style="endArrow=none;dashed=1;html=1;rounded=1;sketch=0;fontColor=#FEFAE0;strokeColor=#DDA15E;fillColor=#BC6C25;curved=0;exitX=0.01;exitY=0.1;exitDx=0;exitDy=0;exitPerimeter=0;labelBackgroundColor=#283618;" parent="779" edge="1">
                    <mxGeometry width="50" height="50" relative="1" as="geometry">
                        <mxPoint x="-4.547473508864641e-13" y="120.99000000000001" as="sourcePoint"/>
                        <mxPoint x="280" y="120" as="targetPoint"/>
                    </mxGeometry>
                </mxCell>
                <mxCell id="859" value="+ GraphDecorator()" style="text;strokeColor=none;fillColor=none;align=left;verticalAlign=middle;spacingLeft=4;spacingRight=4;overflow=hidden;points=[[0,0.5],[1,0.5]];portConstraint=eastwest;rotatable=0;rounded=1;sketch=0;fontColor=#FEFAE0;" parent="779" vertex="1">
                    <mxGeometry y="120" width="278" height="30" as="geometry"/>
                </mxCell>
                <mxCell id="860" value="+ vertexColor()" style="text;strokeColor=none;fillColor=none;align=left;verticalAlign=middle;spacingLeft=4;spacingRight=4;overflow=hidden;points=[[0,0.5],[1,0.5]];portConstraint=eastwest;rotatable=0;rounded=1;sketch=0;fontColor=#FEFAE0;" parent="779" vertex="1">
                    <mxGeometry y="150" width="278" height="30" as="geometry"/>
                </mxCell>
                <mxCell id="861" value="+ edgesColor()" style="text;strokeColor=none;fillColor=none;align=left;verticalAlign=middle;spacingLeft=4;spacingRight=4;overflow=hidden;points=[[0,0.5],[1,0.5]];portConstraint=eastwest;rotatable=0;rounded=1;sketch=0;fontColor=#FEFAE0;" parent="779" vertex="1">
                    <mxGeometry y="180" width="278" height="30" as="geometry"/>
                </mxCell>
                <mxCell id="862" value="+ edgeStroke()" style="text;strokeColor=none;fillColor=none;align=left;verticalAlign=middle;spacingLeft=4;spacingRight=4;overflow=hidden;points=[[0,0.5],[1,0.5]];portConstraint=eastwest;rotatable=0;rounded=1;sketch=0;fontColor=#FEFAE0;" parent="779" vertex="1">
                    <mxGeometry y="210" width="278" height="30" as="geometry"/>
                </mxCell>
                <mxCell id="863" value="+ createGraphMouse()" style="text;strokeColor=none;fillColor=none;align=left;verticalAlign=middle;spacingLeft=4;spacingRight=4;overflow=hidden;points=[[0,0.5],[1,0.5]];portConstraint=eastwest;rotatable=0;rounded=1;sketch=0;fontColor=#FEFAE0;" parent="779" vertex="1">
                    <mxGeometry y="240" width="278" height="30" as="geometry"/>
                </mxCell>
                <mxCell id="864" value="+ vertexSize()" style="text;strokeColor=none;fillColor=none;align=left;verticalAlign=middle;spacingLeft=4;spacingRight=4;overflow=hidden;points=[[0,0.5],[1,0.5]];portConstraint=eastwest;rotatable=0;rounded=1;sketch=0;fontColor=#FEFAE0;" parent="779" vertex="1">
                    <mxGeometry y="270" width="278" height="30" as="geometry"/>
                </mxCell>
                <mxCell id="865" value="+ toStringLabeller()" style="text;strokeColor=none;fillColor=none;align=left;verticalAlign=middle;spacingLeft=4;spacingRight=4;overflow=hidden;points=[[0,0.5],[1,0.5]];portConstraint=eastwest;rotatable=0;rounded=1;sketch=0;fontColor=#FEFAE0;" parent="779" vertex="1">
                    <mxGeometry y="300" width="278" height="30" as="geometry"/>
                </mxCell>
                <mxCell id="936" value="+ graphMouseListener()" style="text;strokeColor=none;fillColor=none;align=left;verticalAlign=middle;spacingLeft=4;spacingRight=4;overflow=hidden;points=[[0,0.5],[1,0.5]];portConstraint=eastwest;rotatable=0;rounded=1;sketch=0;fontColor=#FEFAE0;" parent="779" vertex="1">
                    <mxGeometry y="330" width="278" height="30" as="geometry"/>
                </mxCell>
                <mxCell id="794" value="GraphData" style="swimlane;fontStyle=0;childLayout=stackLayout;horizontal=1;startSize=30;horizontalStack=0;resizeParent=1;resizeParentMax=0;resizeLast=0;collapsible=1;marginBottom=0;rounded=1;sketch=0;fontColor=#FEFAE0;strokeColor=#DDA15E;fillColor=#BC6C25;" parent="154" vertex="1">
                    <mxGeometry x="40" y="810" width="320" height="240" as="geometry"/>
                </mxCell>
                <mxCell id="795" value="+ graph: Graph&lt;Station, EdgeTransport&gt;" style="text;strokeColor=none;fillColor=none;align=left;verticalAlign=middle;spacingLeft=4;spacingRight=4;overflow=hidden;points=[[0,0.5],[1,0.5]];portConstraint=eastwest;rotatable=0;rounded=1;sketch=0;fontColor=#FEFAE0;" parent="794" vertex="1">
                    <mxGeometry y="30" width="320" height="30" as="geometry"/>
                </mxCell>
                <mxCell id="796" value="- minimumLongitude: double" style="text;strokeColor=none;fillColor=none;align=left;verticalAlign=middle;spacingLeft=4;spacingRight=4;overflow=hidden;points=[[0,0.5],[1,0.5]];portConstraint=eastwest;rotatable=0;rounded=1;sketch=0;fontColor=#FEFAE0;" parent="794" vertex="1">
                    <mxGeometry y="60" width="320" height="30" as="geometry"/>
                </mxCell>
                <mxCell id="797" value="- maximumLatitude: double" style="text;strokeColor=none;fillColor=none;align=left;verticalAlign=middle;spacingLeft=4;spacingRight=4;overflow=hidden;points=[[0,0.5],[1,0.5]];portConstraint=eastwest;rotatable=0;rounded=1;sketch=0;fontColor=#FEFAE0;" parent="794" vertex="1">
                    <mxGeometry y="90" width="320" height="30" as="geometry"/>
                </mxCell>
                <mxCell id="798" value="- minimumLatitude: double" style="text;strokeColor=none;fillColor=none;align=left;verticalAlign=middle;spacingLeft=4;spacingRight=4;overflow=hidden;points=[[0,0.5],[1,0.5]];portConstraint=eastwest;rotatable=0;rounded=1;sketch=0;fontColor=#FEFAE0;" parent="794" vertex="1">
                    <mxGeometry y="120" width="320" height="30" as="geometry"/>
                </mxCell>
                <mxCell id="802" value="- maximumLongitude: double" style="text;strokeColor=none;fillColor=none;align=left;verticalAlign=middle;spacingLeft=4;spacingRight=4;overflow=hidden;points=[[0,0.5],[1,0.5]];portConstraint=eastwest;rotatable=0;rounded=1;sketch=0;fontColor=#FEFAE0;" parent="794" vertex="1">
                    <mxGeometry y="150" width="320" height="30" as="geometry"/>
                </mxCell>
                <mxCell id="858" value="- lines: HashMap&lt;String, Line&gt;" style="text;strokeColor=none;fillColor=none;align=left;verticalAlign=middle;spacingLeft=4;spacingRight=4;overflow=hidden;points=[[0,0.5],[1,0.5]];portConstraint=eastwest;rotatable=0;rounded=1;sketch=0;fontColor=#FEFAE0;" parent="794" vertex="1">
                    <mxGeometry y="180" width="320" height="30" as="geometry"/>
                </mxCell>
                <mxCell id="800" value="" style="endArrow=none;dashed=1;html=1;rounded=1;sketch=0;fontColor=#FEFAE0;strokeColor=#DDA15E;fillColor=#BC6C25;curved=0;exitX=0.01;exitY=0.1;exitDx=0;exitDy=0;exitPerimeter=0;labelBackgroundColor=#283618;" parent="794" edge="1">
                    <mxGeometry width="50" height="50" relative="1" as="geometry">
                        <mxPoint x="-4.547473508864641e-13" y="210.99" as="sourcePoint"/>
                        <mxPoint x="320" y="210" as="targetPoint"/>
                    </mxGeometry>
                </mxCell>
                <mxCell id="803" value="+ GraphData(Graph&lt;Station, EdgeTransport&gt;, Set&lt;Line&gt;)" style="text;strokeColor=none;fillColor=none;align=left;verticalAlign=middle;spacingLeft=4;spacingRight=4;overflow=hidden;points=[[0,0.5],[1,0.5]];portConstraint=eastwest;rotatable=0;rounded=1;sketch=0;fontColor=#FEFAE0;" parent="794" vertex="1">
                    <mxGeometry y="210" width="320" height="30" as="geometry"/>
                </mxCell>
                <mxCell id="807" style="edgeStyle=orthogonalEdgeStyle;curved=0;rounded=1;sketch=0;orthogonalLoop=1;jettySize=auto;html=1;fontColor=#FEFAE0;strokeColor=#DDA15E;fillColor=#BC6C25;endArrow=none;endFill=0;exitX=0.501;exitY=-0.01;exitDx=0;exitDy=0;exitPerimeter=0;" parent="154" source="288" edge="1">
                    <mxGeometry relative="1" as="geometry">
                        <Array as="points">
                            <mxPoint x="529" y="230"/>
                        </Array>
                        <mxPoint x="529" y="270" as="sourcePoint"/>
                        <mxPoint x="340" y="230" as="targetPoint"/>
                    </mxGeometry>
                </mxCell>
                <mxCell id="809" style="edgeStyle=orthogonalEdgeStyle;curved=0;rounded=1;sketch=0;orthogonalLoop=1;jettySize=auto;html=1;fontColor=#FEFAE0;strokeColor=#DDA15E;fillColor=#BC6C25;endArrow=none;endFill=0;exitX=0.5;exitY=0;exitDx=0;exitDy=0;" parent="154" source="779" edge="1">
                    <mxGeometry relative="1" as="geometry">
                        <Array as="points">
                            <mxPoint x="549" y="590"/>
                        </Array>
                        <mxPoint x="550" y="580" as="sourcePoint"/>
                        <mxPoint x="549" y="590" as="targetPoint"/>
                    </mxGeometry>
                </mxCell>
                <mxCell id="810" style="edgeStyle=orthogonalEdgeStyle;curved=0;rounded=1;sketch=0;orthogonalLoop=1;jettySize=auto;html=1;fontColor=#FEFAE0;strokeColor=#DDA15E;fillColor=#BC6C25;endArrow=none;endFill=0;" parent="154" edge="1">
                    <mxGeometry relative="1" as="geometry">
                        <Array as="points">
                            <mxPoint x="180" y="760"/>
                            <mxPoint x="468" y="760"/>
                            <mxPoint x="468" y="590"/>
                        </Array>
                        <mxPoint x="180" y="810" as="sourcePoint"/>
                        <mxPoint x="468" y="590" as="targetPoint"/>
                    </mxGeometry>
                </mxCell>
                <mxCell id="867" value="SearchPanel" style="swimlane;fontStyle=0;childLayout=stackLayout;horizontal=1;startSize=30;horizontalStack=0;resizeParent=1;resizeParentMax=0;resizeLast=0;collapsible=1;marginBottom=0;rounded=1;sketch=0;fontColor=#FEFAE0;strokeColor=#DDA15E;fillColor=#BC6C25;" parent="154" vertex="1">
                    <mxGeometry x="760" y="110" width="290" height="300" as="geometry"/>
                </mxCell>
                <mxCell id="868" value="+ textAreaStationStart: TextAreaDemo" style="text;strokeColor=none;fillColor=none;align=left;verticalAlign=middle;spacingLeft=4;spacingRight=4;overflow=hidden;points=[[0,0.5],[1,0.5]];portConstraint=eastwest;rotatable=0;rounded=1;sketch=0;fontColor=#FEFAE0;" parent="867" vertex="1">
                    <mxGeometry y="30" width="290" height="30" as="geometry"/>
                </mxCell>
                <mxCell id="869" value="+ textAreaStationEnd: TextAreaDemo" style="text;strokeColor=none;fillColor=none;align=left;verticalAlign=middle;spacingLeft=4;spacingRight=4;overflow=hidden;points=[[0,0.5],[1,0.5]];portConstraint=eastwest;rotatable=0;rounded=1;sketch=0;fontColor=#FEFAE0;" parent="867" vertex="1">
                    <mxGeometry y="60" width="290" height="30" as="geometry"/>
                </mxCell>
                <mxCell id="871" value="- actualStationsNames: HashMap&lt;String, String&gt;" style="text;strokeColor=none;fillColor=none;align=left;verticalAlign=middle;spacingLeft=4;spacingRight=4;overflow=hidden;points=[[0,0.5],[1,0.5]];portConstraint=eastwest;rotatable=0;rounded=1;sketch=0;fontColor=#FEFAE0;" parent="867" vertex="1">
                    <mxGeometry y="90" width="290" height="30" as="geometry"/>
                </mxCell>
                <mxCell id="872" value="- stationsNames: List&lt;String&gt;" style="text;strokeColor=none;fillColor=none;align=left;verticalAlign=middle;spacingLeft=4;spacingRight=4;overflow=hidden;points=[[0,0.5],[1,0.5]];portConstraint=eastwest;rotatable=0;rounded=1;sketch=0;fontColor=#FEFAE0;" parent="867" vertex="1">
                    <mxGeometry y="120" width="290" height="30" as="geometry"/>
                </mxCell>
                <mxCell id="949" value="- time: LocalTime" style="text;strokeColor=none;fillColor=none;align=left;verticalAlign=middle;spacingLeft=4;spacingRight=4;overflow=hidden;points=[[0,0.5],[1,0.5]];portConstraint=eastwest;rotatable=0;rounded=1;sketch=0;fontColor=#FEFAE0;" parent="867" vertex="1">
                    <mxGeometry y="150" width="290" height="30" as="geometry"/>
                </mxCell>
                <mxCell id="877" value="" style="endArrow=none;dashed=1;html=1;rounded=1;sketch=0;fontColor=#FEFAE0;strokeColor=#DDA15E;fillColor=#BC6C25;curved=0;exitX=0.01;exitY=0.1;exitDx=0;exitDy=0;exitPerimeter=0;labelBackgroundColor=#283618;entryX=0.994;entryY=0;entryDx=0;entryDy=0;entryPerimeter=0;" parent="867" target="873" edge="1">
                    <mxGeometry width="50" height="50" relative="1" as="geometry">
                        <mxPoint x="-4.547473508864641e-13" y="180.99000000000024" as="sourcePoint"/>
                        <mxPoint x="280" y="180" as="targetPoint"/>
                    </mxGeometry>
                </mxCell>
                <mxCell id="873" value="+ SearchPanel(GraphData)" style="text;strokeColor=none;fillColor=none;align=left;verticalAlign=middle;spacingLeft=4;spacingRight=4;overflow=hidden;points=[[0,0.5],[1,0.5]];portConstraint=eastwest;rotatable=0;rounded=1;sketch=0;fontColor=#FEFAE0;" parent="867" vertex="1">
                    <mxGeometry y="180" width="290" height="30" as="geometry"/>
                </mxCell>
                <mxCell id="874" value="- stripAccents(String)" style="text;strokeColor=none;fillColor=none;align=left;verticalAlign=middle;spacingLeft=4;spacingRight=4;overflow=hidden;points=[[0,0.5],[1,0.5]];portConstraint=eastwest;rotatable=0;rounded=1;sketch=0;fontColor=#FEFAE0;" parent="867" vertex="1">
                    <mxGeometry y="210" width="290" height="30" as="geometry"/>
                </mxCell>
                <mxCell id="875" value="- search()" style="text;strokeColor=none;fillColor=none;align=left;verticalAlign=middle;spacingLeft=4;spacingRight=4;overflow=hidden;points=[[0,0.5],[1,0.5]];portConstraint=eastwest;rotatable=0;rounded=1;sketch=0;fontColor=#FEFAE0;" parent="867" vertex="1">
                    <mxGeometry y="240" width="290" height="30" as="geometry"/>
                </mxCell>
                <mxCell id="876" value="- parseCoordinates(String)" style="text;strokeColor=none;fillColor=none;align=left;verticalAlign=middle;spacingLeft=4;spacingRight=4;overflow=hidden;points=[[0,0.5],[1,0.5]];portConstraint=eastwest;rotatable=0;rounded=1;sketch=0;fontColor=#FEFAE0;" parent="867" vertex="1">
                    <mxGeometry y="270" width="290" height="30" as="geometry"/>
                </mxCell>
                <mxCell id="886" value="LineColor" style="swimlane;fontStyle=0;childLayout=stackLayout;horizontal=1;startSize=30;horizontalStack=0;resizeParent=1;resizeParentMax=0;resizeLast=0;collapsible=1;marginBottom=0;rounded=1;sketch=0;fontColor=#FEFAE0;strokeColor=#DDA15E;fillColor=#BC6C25;" parent="154" vertex="1">
                    <mxGeometry x="50" y="1130" width="290" height="60" as="geometry"/>
                </mxCell>
                <mxCell id="887" value="+ static getColor(String)" style="text;strokeColor=none;fillColor=none;align=left;verticalAlign=middle;spacingLeft=4;spacingRight=4;overflow=hidden;points=[[0,0.5],[1,0.5]];portConstraint=eastwest;rotatable=0;rounded=1;sketch=0;fontColor=#FEFAE0;" parent="886" vertex="1">
                    <mxGeometry y="30" width="290" height="30" as="geometry"/>
                </mxCell>
                <mxCell id="889" style="edgeStyle=orthogonalEdgeStyle;curved=0;rounded=1;sketch=0;orthogonalLoop=1;jettySize=auto;html=1;fontColor=#FEFAE0;strokeColor=#DDA15E;fillColor=#BC6C25;endArrow=none;endFill=0;" parent="154" edge="1">
                    <mxGeometry relative="1" as="geometry">
                        <Array as="points">
                            <mxPoint x="150" y="1210"/>
                            <mxPoint x="530" y="1210"/>
                        </Array>
                        <mxPoint x="150" y="1190" as="sourcePoint"/>
                        <mxPoint x="530" y="1170" as="targetPoint"/>
                    </mxGeometry>
                </mxCell>
                <mxCell id="891" style="edgeStyle=orthogonalEdgeStyle;curved=0;rounded=1;sketch=0;orthogonalLoop=1;jettySize=auto;html=1;fontColor=#FEFAE0;strokeColor=#DDA15E;fillColor=#BC6C25;labelBackgroundColor=#283618;dashed=1;dashPattern=8 8;endArrow=block;endFill=0;" parent="154" edge="1">
                    <mxGeometry relative="1" as="geometry">
                        <mxPoint x="930" y="110" as="targetPoint"/>
                        <mxPoint x="710" y="90" as="sourcePoint"/>
                        <Array as="points">
                            <mxPoint x="760" y="90"/>
                            <mxPoint x="930" y="90"/>
                        </Array>
                    </mxGeometry>
                </mxCell>
                <mxCell id="892" style="edgeStyle=orthogonalEdgeStyle;curved=0;rounded=1;sketch=0;orthogonalLoop=1;jettySize=auto;html=1;fontColor=#FEFAE0;strokeColor=#DDA15E;fillColor=#BC6C25;endArrow=none;endFill=0;" parent="154" edge="1">
                    <mxGeometry relative="1" as="geometry">
                        <Array as="points">
                            <mxPoint x="529" y="170"/>
                        </Array>
                        <mxPoint x="760" y="170" as="sourcePoint"/>
                        <mxPoint x="340" y="170" as="targetPoint"/>
                    </mxGeometry>
                </mxCell>
                <mxCell id="893" style="edgeStyle=orthogonalEdgeStyle;curved=0;rounded=1;sketch=0;orthogonalLoop=1;jettySize=auto;html=1;fontColor=#FEFAE0;strokeColor=#DDA15E;fillColor=#BC6C25;endArrow=none;endFill=0;exitX=0;exitY=0;exitDx=0;exitDy=0;exitPerimeter=0;" parent="154" source="248" edge="1">
                    <mxGeometry relative="1" as="geometry">
                        <Array as="points">
                            <mxPoint x="720" y="470"/>
                            <mxPoint x="720" y="200"/>
                        </Array>
                        <mxPoint x="720" y="470" as="sourcePoint"/>
                        <mxPoint x="340" y="200" as="targetPoint"/>
                    </mxGeometry>
                </mxCell>
                <mxCell id="901" style="edgeStyle=orthogonalEdgeStyle;curved=0;rounded=1;sketch=0;orthogonalLoop=1;jettySize=auto;html=1;fontColor=#FEFAE0;strokeColor=#DDA15E;fillColor=#BC6C25;endArrow=none;endFill=0;exitX=0;exitY=0.25;exitDx=0;exitDy=0;" parent="154" source="939" edge="1">
                    <mxGeometry relative="1" as="geometry">
                        <Array as="points"/>
                        <mxPoint x="40" y="530" as="sourcePoint"/>
                        <mxPoint x="-150" y="530" as="targetPoint"/>
                    </mxGeometry>
                </mxCell>
                <mxCell id="336" value="Controller" style="swimlane;whiteSpace=wrap;html=1;strokeColor=#666666;fillColor=#f5f5f5;fontColor=#333333;" parent="WIyWlLk6GJQsqaUBKTNV-1" vertex="1">
                    <mxGeometry x="1320" y="200" width="360" height="270" as="geometry"/>
                </mxCell>
                <mxCell id="416" value="Controller" style="swimlane;fontStyle=0;childLayout=stackLayout;horizontal=1;startSize=30;horizontalStack=0;resizeParent=1;resizeParentMax=0;resizeLast=0;collapsible=1;marginBottom=0;rounded=1;sketch=0;fontColor=#FEFAE0;strokeColor=#DDA15E;fillColor=#BC6C25;" parent="336" vertex="1">
                    <mxGeometry x="40" y="50" width="278" height="210" as="geometry"/>
                </mxCell>
                <mxCell id="417" value="+ static network: Network " style="text;strokeColor=none;fillColor=none;align=left;verticalAlign=middle;spacingLeft=4;spacingRight=4;overflow=hidden;points=[[0,0.5],[1,0.5]];portConstraint=eastwest;rotatable=0;rounded=1;sketch=0;fontColor=#FEFAE0;" parent="416" vertex="1">
                    <mxGeometry y="30" width="278" height="30" as="geometry"/>
                </mxCell>
                <mxCell id="430" value="+ static view: View" style="text;strokeColor=none;fillColor=none;align=left;verticalAlign=middle;spacingLeft=4;spacingRight=4;overflow=hidden;points=[[0,0.5],[1,0.5]];portConstraint=eastwest;rotatable=0;rounded=1;sketch=0;fontColor=#FEFAE0;" parent="416" vertex="1">
                    <mxGeometry y="60" width="278" height="30" as="geometry"/>
                </mxCell>
                <mxCell id="903" value="+ static graphView: GraphView" style="text;strokeColor=none;fillColor=none;align=left;verticalAlign=middle;spacingLeft=4;spacingRight=4;overflow=hidden;points=[[0,0.5],[1,0.5]];portConstraint=eastwest;rotatable=0;rounded=1;sketch=0;fontColor=#FEFAE0;" parent="416" vertex="1">
                    <mxGeometry y="90" width="278" height="30" as="geometry"/>
                </mxCell>
                <mxCell id="444" value="" style="endArrow=none;dashed=1;html=1;rounded=1;sketch=0;fontColor=#FEFAE0;strokeColor=#DDA15E;fillColor=#BC6C25;curved=0;exitX=0.01;exitY=0.1;exitDx=0;exitDy=0;exitPerimeter=0;labelBackgroundColor=#283618;" parent="416" edge="1">
                    <mxGeometry width="50" height="50" relative="1" as="geometry">
                        <mxPoint x="1.9999999999995453" y="120.99000000000001" as="sourcePoint"/>
                        <mxPoint x="282" y="120" as="targetPoint"/>
                    </mxGeometry>
                </mxCell>
                <mxCell id="431" value="+ Controller()" style="text;strokeColor=none;fillColor=none;align=left;verticalAlign=middle;spacingLeft=4;spacingRight=4;overflow=hidden;points=[[0,0.5],[1,0.5]];portConstraint=eastwest;rotatable=0;rounded=1;sketch=0;fontColor=#FEFAE0;" parent="416" vertex="1">
                    <mxGeometry y="120" width="278" height="30" as="geometry"/>
                </mxCell>
                <mxCell id="814" value="+ static createPoint(double, double)" style="text;strokeColor=none;fillColor=none;align=left;verticalAlign=middle;spacingLeft=4;spacingRight=4;overflow=hidden;points=[[0,0.5],[1,0.5]];portConstraint=eastwest;rotatable=0;rounded=1;sketch=0;fontColor=#FEFAE0;" parent="416" vertex="1">
                    <mxGeometry y="150" width="278" height="30" as="geometry"/>
                </mxCell>
                <mxCell id="815" value="+ static deleteUserPoints()" style="text;strokeColor=none;fillColor=none;align=left;verticalAlign=middle;spacingLeft=4;spacingRight=4;overflow=hidden;points=[[0,0.5],[1,0.5]];portConstraint=eastwest;rotatable=0;rounded=1;sketch=0;fontColor=#FEFAE0;" parent="416" vertex="1">
                    <mxGeometry y="180" width="278" height="30" as="geometry"/>
                </mxCell>
                <mxCell id="426" style="edgeStyle=orthogonalEdgeStyle;curved=0;rounded=1;sketch=0;orthogonalLoop=1;jettySize=auto;html=1;fontColor=#FEFAE0;strokeColor=#DDA15E;fillColor=#BC6C25;endArrow=none;endFill=0;entryX=0.614;entryY=0.003;entryDx=0;entryDy=0;entryPerimeter=0;" parent="WIyWlLk6GJQsqaUBKTNV-1" target="zkfFHV4jXpPFQw0GAbJ--0" edge="1">
                    <mxGeometry relative="1" as="geometry">
                        <Array as="points">
                            <mxPoint x="1471" y="20"/>
                            <mxPoint x="290" y="20"/>
                            <mxPoint x="290" y="127"/>
                        </Array>
                        <mxPoint x="1471" y="250" as="sourcePoint"/>
                        <mxPoint x="290" y="80" as="targetPoint"/>
                    </mxGeometry>
                </mxCell>
                <mxCell id="806" style="edgeStyle=orthogonalEdgeStyle;curved=0;rounded=1;sketch=0;orthogonalLoop=1;jettySize=auto;html=1;fontColor=#FEFAE0;strokeColor=#DDA15E;fillColor=#BC6C25;endArrow=none;endFill=0;exitX=0.432;exitY=1;exitDx=0;exitDy=0;exitPerimeter=0;entryX=0.432;entryY=-0.006;entryDx=0;entryDy=0;entryPerimeter=0;" parent="WIyWlLk6GJQsqaUBKTNV-1" source="815" target="699" edge="1">
                    <mxGeometry relative="1" as="geometry">
                        <Array as="points"/>
                        <mxPoint x="1480" y="470" as="sourcePoint"/>
                        <mxPoint x="1480" y="580" as="targetPoint"/>
                    </mxGeometry>
                </mxCell>
                <mxCell id="899" style="edgeStyle=orthogonalEdgeStyle;curved=0;rounded=1;sketch=0;orthogonalLoop=1;jettySize=auto;html=1;fontColor=#FEFAE0;strokeColor=#DDA15E;fillColor=#BC6C25;endArrow=none;endFill=0;" parent="WIyWlLk6GJQsqaUBKTNV-1" edge="1">
                    <mxGeometry relative="1" as="geometry">
                        <Array as="points">
                            <mxPoint x="1320" y="730"/>
                        </Array>
                        <mxPoint x="1360" y="730" as="sourcePoint"/>
                        <mxPoint x="1150" y="730" as="targetPoint"/>
                    </mxGeometry>
                </mxCell>
                <mxCell id="900" style="edgeStyle=orthogonalEdgeStyle;curved=0;rounded=1;sketch=0;orthogonalLoop=1;jettySize=auto;html=1;fontColor=#FEFAE0;strokeColor=#DDA15E;fillColor=#BC6C25;endArrow=none;endFill=0;entryX=0.693;entryY=-0.013;entryDx=0;entryDy=0;entryPerimeter=0;" parent="WIyWlLk6GJQsqaUBKTNV-1" target="867" edge="1">
                    <mxGeometry relative="1" as="geometry">
                        <Array as="points">
                            <mxPoint x="2260" y="350"/>
                        </Array>
                        <mxPoint x="1640" y="350" as="sourcePoint"/>
                        <mxPoint x="2259.996" y="637.48" as="targetPoint"/>
                    </mxGeometry>
                </mxCell>
            </root>
        </mxGraphModel>
    </diagram>
</mxfile>